<svg xmlns="http://www.w3.org/2000/svg" width="92" height="40" viewBox="0 0 92 40">
  <defs>
    <style>
      .cls-1 {
        fill: #fdb515;
      }

      .cls-2 {
        fill-rule: evenodd;
      }
    </style>
  </defs>
  <g id="Artboard_1" data-name="Artboard 1">
    <rect class="cls-1" width="92" height="40"/>
    <path id="_24_7_chat" data-name="24/7 chat" class="cls-2" d="M17.395,24.236l-0.05-2.5H13.884c2.167-.874,3.091-1.949,3.091-3.108,0-1.579-1.293-2.738-3.679-2.738a7.827,7.827,0,0,0-3.965,1.159l0.638,2.3a5.183,5.183,0,0,1,2.469-.857c0.756,0,1.109.252,1.109,0.756,0,0.706-1.092,1.226-3.881,2.889v2.1h7.727Zm10.7,0-0.05-2.419h-1.63V16.122H22.788l-4.1,6.131,0.4,1.982H23.46v2.839h2.957V24.236H28.1ZM23.645,21.9h-2.15l2.15-3.427V21.9ZM35.3,12.443H32.617L28.535,27.579h2.688Zm5.175,6.316-4.267,8.315h3.074l4.368-8.92V16.122h-8.1l-0.05,2.637h4.972Zm16.078,5.09L56.1,21.531a3.859,3.859,0,0,1-1.982.571,1.657,1.657,0,0,1-1.781-1.831A1.619,1.619,0,0,1,54,18.49a4.714,4.714,0,0,1,2.033.588l0.571-2.3a6.721,6.721,0,0,0-3.024-.655c-2.805,0-4.5,1.613-4.5,4.267,0,2.755,1.8,4.1,4.468,4.1A6.4,6.4,0,0,0,56.557,23.849Zm10.03,0.386V18.826a2.4,2.4,0,0,0-2.486-2.7A3.485,3.485,0,0,0,61.43,17.55V12.863l-3.209.37v11H61.43V19.229a1.6,1.6,0,0,1,1.092-.47,0.81,0.81,0,0,1,.857.974v4.5h3.209Zm6.284-2.1a1.213,1.213,0,0,1-.924.37,0.683,0.683,0,0,1-.756-0.655c0-.571.454-0.79,1.68-0.907v1.193Zm0.084,1.092c0.437,0.957,1.428,1.428,3.36,1.142l0.319-2.2c-0.454-.067-0.571-0.1-0.571-0.588L76.08,19.75c0.05-2.234-.84-3.628-3.847-3.628a9.156,9.156,0,0,0-3.965.941L68.94,19.3a7.344,7.344,0,0,1,2.738-.756c0.823,0,1.193.3,1.193,0.907v0.118c-3.461.05-4.62,1.243-4.62,2.772a2.243,2.243,0,0,0,2.335,2.15,2.758,2.758,0,0,0,2.318-1.26h0.05Zm10.668,1.008L83.288,21.8a2.521,2.521,0,0,1-.823.151,0.89,0.89,0,0,1-1.041-.991l0.067-2.016h1.932l0.05-2.419h-1.73V14.61H78.634L78.6,16.441l-1.109.386-0.05,2.049,1.109,0.252-0.118,2.3c-0.118,2.234,1.041,3.057,3.209,3.057A6.542,6.542,0,0,0,83.624,24.236Z"/>
  </g>
</svg>
