<svg xmlns="http://www.w3.org/2000/svg" width="92" height="40" viewBox="0 0 92 40">
  <defs>
    <style>
      .cls-1 {
        fill: #fdb515;
      }

      .cls-2 {
        fill-rule: evenodd;
      }
    </style>
  </defs>
  <g id="Artboard_1" data-name="Artboard 1">
    <rect class="cls-1" width="92" height="40"/>
    <path id="_24_7_Chat" data-name="24/7 Chat" class="cls-2" d="M17.482,23.509l-0.051-2.533h-3.5c2.193-.884,3.128-1.972,3.128-3.145,0-1.6-1.309-2.771-3.723-2.771a7.921,7.921,0,0,0-4.012,1.173l0.646,2.329a5.243,5.243,0,0,1,2.5-.867c0.765,0,1.122.255,1.122,0.765,0,0.714-1.1,1.241-3.927,2.924v2.125h7.819Zm10.4,0-0.051-2.448H26.186V15.3H22.514l-4.148,6.2,0.408,2.006h4.42v2.873h2.992V23.509h1.7Zm-4.5-2.363H21.206l2.176-3.468v3.468Zm11.373-9.57h-2.72L27.9,26.891h2.72Zm4.811,6.391-4.318,8.414h3.111l4.419-9.026V15.3H34.585l-0.051,2.669h5.032Zm17.543-4.59a8.984,8.984,0,0,0-3.587-.748c-3.723,0-5.949,2.159-5.949,5.609,0,3.672,2.261,5.524,5.813,5.524a9,9,0,0,0,3.6-.714l-0.731-2.873a5.209,5.209,0,0,1-2.7.782,2.463,2.463,0,0,1-2.618-2.788,2.488,2.488,0,0,1,2.618-2.737,5.326,5.326,0,0,1,2.55.714Zm9.656,10.131V18.035A2.431,2.431,0,0,0,64.249,15.3a3.527,3.527,0,0,0-2.7,1.445V12l-3.247.374V23.509h3.247V18.443a1.62,1.62,0,0,1,1.1-.476,0.82,0.82,0,0,1,.867.986v4.556h3.247ZM72.7,21.384a1.227,1.227,0,0,1-.935.374A0.691,0.691,0,0,1,71,21.1c0-.578.459-0.8,1.7-0.918v1.207Zm0.085,1.1c0.442,0.969,1.445,1.445,3.4,1.156l0.323-2.227c-0.459-.068-0.578-0.1-0.578-0.595l0.017-1.853C76,16.71,75.094,15.3,72.052,15.3a9.264,9.264,0,0,0-4.012.952l0.68,2.261a7.428,7.428,0,0,1,2.771-.765c0.833,0,1.207.306,1.207,0.918v0.119c-3.5.051-4.674,1.258-4.674,2.8a2.269,2.269,0,0,0,2.363,2.176,2.791,2.791,0,0,0,2.346-1.275h0.051Zm10.37,1.02-0.34-2.465a2.551,2.551,0,0,1-.833.153,0.9,0.9,0,0,1-1.054-1l0.068-2.04h1.955L83,15.707H81.249V13.769H78.1L78.07,15.622l-1.122.391L76.9,18.086l1.122,0.255L77.9,20.67c-0.119,2.261,1.054,3.094,3.247,3.094A6.62,6.62,0,0,0,83.152,23.509Z"/>
  </g>
</svg>
