<svg xmlns="http://www.w3.org/2000/svg" width="158.648" height="49.998" viewBox="0 0 165 52">
  <metadata><?xpacket begin="﻿" id="W5M0MpCehiHzreSzNTczkc9d"?>
<x:xmpmeta xmlns:x="adobe:ns:meta/" x:xmptk="Adobe XMP Core 5.6-c138 79.159824, 2016/09/14-01:09:01        ">
   <rdf:RDF xmlns:rdf="http://www.w3.org/1999/02/22-rdf-syntax-ns#">
      <rdf:Description rdf:about=""/>
   </rdf:RDF>
</x:xmpmeta>
                                                                                                    
                                                                                                    
                                                                                                    
                                                                                                    
                                                                                                    
                                                                                                    
                                                                                                    
                                                                                                    
                                                                                                    
                                                                                                    
                                                                                                    
                                                                                                    
                                                                                                    
                                                                                                    
                                                                                                    
                                                                                                    
                                                                                                    
                                                                                                    
                                                                                                    
                                                                                                    
                           
<?xpacket end="w"?></metadata>
<defs>
    <style>
      .cls-1 {
        fill: #fff;
        fill-rule: evenodd;
      }
    </style>
  </defs>
  <path id="Color_Fill_1" data-name="Color Fill 1" class="cls-1" d="M25.385,16.774c-1.117.276-2.479,1.624-3.592,2.157v0.24h0.239v0.24H22.99l0.239,0.479h0.719v0.24h0.479v0.24h0.479l0.239,0.479h0.719L26.1,21.327c0.893,0.593,2.1,1.25,2.395,2.4h0.479c0.24,1.065.894,1.86,1.2,2.876,0.354,1.189-.185,5.045-0.479,5.751H29.456V32.83l-0.479.24-0.239.959-0.958.719-0.239.719H27.061l-0.239.479-0.718.24v0.24H25.624l-0.239.479-1.437.24v0.24H23.229v0.24H22.511v0.24H21.793V38.1H20.116v0.24a22.267,22.267,0,0,1-5.747.24v-0.24h-1.2V38.1H10.537v-0.24a4.6,4.6,0,0,0-2.155.24H4.071v0.24H3.113V38.1H2.395v-0.24H2.155V36.9c1.134-.191,3.179-0.269,4.311-0.479V11.5c0-2.647.539-7.316-1.437-7.908V3.355H1.916V3.115H1.2L0.958,2.157A42.647,42.647,0,0,1,7.9,1.917h2.634c2.17-.6,9.623-0.429,11.495.24V2.4l1.437,0.24v0.24l1.437,0.479v0.24h0.479l0.958,1.2,1.2,0.959c0.414,0.634,1.416,4.566.958,5.991h-0.24v0.719H28.019V13.18H27.779V13.9H27.54l-0.239.719-0.479.24v0.479l-0.718.24v0.24A1.367,1.367,0,0,0,25.385,16.774Zm93.875-15.1c0.194,2.238,0,4.5,0,7.189V26.12h-0.24v7.189c0,1.167-.091,2.292.479,2.876,0.874,0.954,1.747-.023,2.874.479a2.533,2.533,0,0,0,.479.479l-0.24.719H119.5V38.1l-2.634-.24-2.874.24v-0.24h-2.873V36.9l4.071-.479V4.793l-0.719-.24V4.313c-0.836-.461-2.23.322-2.873-0.24-0.244-.185-0.236-0.294-0.479-0.479a0.418,0.418,0,0,1,.239-0.24c0.417-.626,1.345-0.516,2.395-0.479,0.507-.439,1.366,0,2.155-0.24A17.867,17.867,0,0,1,119.26,1.677Zm-42.627.24Q76.393,15.455,76.154,29a3.8,3.8,0,0,0,2.155-.959l0.239-.479,0.958-.24,0.479-.719,0.718-.24,1.2-1.438H82.38l0.718-.959h0.479c0.288-.23.638-1.115,0.958-1.438l1.916-1.677a4.1,4.1,0,0,0,.479-2.4H86.691v-0.24a16.243,16.243,0,0,1-3.113-.24V17.014c1.861-.093,5.425-0.026,7.663-0.24a2.54,2.54,0,0,1,.24.959,1.985,1.985,0,0,0-.718,1.2H90.283a2.474,2.474,0,0,1-.718,1.2H89.325l-0.24.719-0.718.24-0.239.719-0.479.479H87.17l-0.718.959H85.972v0.479c-1.061.28-.85,0.9-1.916,1.2V25.4H83.578c-0.4.68-.826,0.651-0.958,1.677h0.24v0.479l0.479,0.24,0.479,0.719h0.24V29H84.3a1.882,1.882,0,0,1,.479.959h0.479v0.24a5.012,5.012,0,0,1,.718.959h0.24v0.479c0.975,0.287.32,0.167,0.718,0.719l0.479,0.24v0.479l1.2,0.959v0.479l1.676,1.438,0.239,0.479H91v0.24h0.958V36.9h1.2v0.24l0.719,0.24c-0.137.482,0.029,0.207-.24,0.479-0.433.389-1.591,0.234-2.395,0.24H89.8v0.24L86.93,38.1c-0.623-1.1-1.807-1.776-2.155-3.115H84.3l-0.239-.719-0.718-.479V33.309L82.62,32.83V32.59l-0.479-.24V31.871H81.9a3.463,3.463,0,0,1-.958-1.677H80.464V29.714a2.367,2.367,0,0,1-.958-0.959c-0.481.137-.207-0.029-0.479,0.24l-0.719.24v0.24H77.83l-0.24.479H77.112l-0.24.479-0.718.24v5.032h0.239v0.719a0.561,0.561,0,0,1,.479.24h3.353l0.239,0.719H80.7c0.054,0.334-.09-0.064-0.24.24-0.52.459-2.185,0.239-3.113,0.24H68.491V36.9a20.033,20.033,0,0,1,3.353-.24,10.315,10.315,0,0,0,.239-3.115h0.239V32.111a28.182,28.182,0,0,1-.239-5.991V13.18c0.653-2.367.169-6.406-.239-8.627a9.334,9.334,0,0,0-2.874-.24V4.074H68.251V3.115a0.42,0.42,0,0,0,.24-0.24L74.238,2.4V2.157ZM20.356,4.793c-1.126-.266-1.83-1.106-2.874-1.438-1.156-.367-5.064.04-5.508,0.479-0.534.608-.239,2.779-0.239,3.834V18.212c1.5,0.557,4.3.252,6.226,0.24,0.346,0.341,1.49.255,1.916,0.479v-0.24a6.918,6.918,0,0,0,3.353-3.834V12.7a4.414,4.414,0,0,0,.24-2.157h-0.24V9.825H22.99V8.866H22.75V8.387H22.511V7.668H22.271V7.189L21.553,6.71V6.23H21.314A3.483,3.483,0,0,1,20.356,4.793ZM140.813,23.244a12.378,12.378,0,0,0-1.916.719l-2.634.24a42.272,42.272,0,0,1-10.537,1.438,11.626,11.626,0,0,0,.479,5.512h0.239q0.24,0.719.479,1.438H127.4v0.479a3.618,3.618,0,0,0,1.2.719v0.479c0.987,0.225,1.028.668,1.677,0.959h0.718v0.24h0.958v0.24h1.437v0.24c1.714,0.486,4.269-.363,5.268-0.719h0.958v-0.24l1.2-.24a0.928,0.928,0,0,1-.479.959v0.24h-0.479l-0.24.479h-0.479v0.24h-0.479q-0.119.24-.239,0.479H137.7v0.24h-0.479v0.24l-0.958.24V38.1l-1.437.24v0.24h-1.677v0.24l-4.071-.24v-0.24H128.6V38.1h-0.718v-0.24h-0.718v-0.24h-0.479v-0.24h-0.479l-0.24-.479h-0.479l-0.479-.719-1.437-1.2V34.507l-0.479-.24q-0.118-.6-0.239-1.2l-0.479-.24V31.871h-0.239V31.152h-0.24q-0.12-2.4-.239-4.793h0.239V25.4h0.24q0.118-1.078.239-2.157h0.239q0.24-.719.479-1.438h0.24q0.12-.479.239-0.959l0.479-.24V20.129h0.24c0.08-.24.159-0.479,0.239-0.719a4.411,4.411,0,0,0,1.677-1.2v-0.24h0.479q0.119-.24.239-0.479h0.719v-0.24l0.957-.24v-0.24h1.2v-0.24a9.83,9.83,0,0,1,5.029.479v0.24l0.958,0.24v0.24l0.958,0.24q0.119,0.24.239,0.479h0.479l1.437,1.677C139.821,21.054,140.77,21.381,140.813,23.244Zm-91.96-3.355c0.939,0.247,2.185,2.331,2.395,3.355l-2.155.479v0.24H47.9V24.2H46.459v0.24h-1.2v0.24H43.824v0.24h-1.2v0.24H40.472V25.4c-1.553.446-4.089-.548-4.55,0.959H35.682v1.677h0.239l0.239,2.4H36.4l0.239,1.2,0.479,0.24,0.239,0.959c1.228,0.351.591,0.744,1.2,1.2l0.958,0.24,0.239,0.479h0.479v0.24h0.479v0.24H41.43c1.074,0.409,3.262,1.218,5.029.719v-0.24h1.916v-0.24l2.634-.719v0.719l-0.718.479v0.24l-1.437.479-0.239.479H48.135v0.24l-0.958.24v0.24l-2.155.479v0.24h-1.2v0.24a7.732,7.732,0,0,1-4.071-.479l-1.916-.24v-0.24L36.4,37.383l-0.479-.719H35.443l-0.958-1.2-0.479-.24V34.747l-0.718-.479-0.239-.959H32.808V32.83H32.569V31.871H32.33V30.912H32.09V29.475h-0.24l0.24-4.313H32.33V24.442h0.239l0.479-2.157h0.239V21.807h0.239V21.327l0.479-.24V20.608l0.479-.24V19.889l0.958-.719,0.239-.479h0.479l0.958-1.2,1.2-.24v-0.24H38.8v-0.24h0.718v-0.24H41.19a9.376,9.376,0,0,1,4.79.958v0.24h0.479v0.24h0.479v0.24h0.479L47.9,18.931h0.479v0.24A0.851,0.851,0,0,1,48.853,19.889Zm58.672-1.677v0.479a5.69,5.69,0,0,1,1.437.719c0.461,0.541-.253.423,0.719,0.719,0.154,0.656.313,0.545,0.479,1.2h0.479a8.686,8.686,0,0,1,.479,1.917l-1.437.24v0.24H109.2v0.24l-4.071.479a36.227,36.227,0,0,1-9.1,1.2,7.974,7.974,0,0,0,.479,4.793v0.719h0.24l0.239,0.958,0.479,0.24,0.24,0.719h0.479v0.479l3.113,1.917,2.395,0.24v0.24h3.113v-0.24l2.395-.24v-0.24a5.731,5.731,0,0,1,1.916-.479,0.933,0.933,0,0,1-.479.959v0.24H110.16l-0.479.719h-0.719l-0.239.479h-0.479v0.24h-0.479v0.24h-0.719v0.24h-0.479V38.1h-0.718c-0.863.34-3.006,1.166-4.55,0.719v-0.24H99.862v-0.24H98.9V38.1H98.425v-0.24H97.707v-0.24H96.988v-0.24a1.835,1.835,0,0,0-.958-0.24V36.664H95.552v-0.24l-1.676-1.438V34.507l-0.479-.24L92.917,32.83H92.678V32.35h-0.24q-0.12-1.8-.239-3.594H91.959V26.12H92.2v-1.2h0.239V24.2h0.24V23.484h0.239V22.525h0.239V22.046l0.479-.24,0.479-1.438,0.958-.719a10.649,10.649,0,0,1,2.634-2.4h0.718v-0.24H98.9v-0.24h0.718v-0.24h4.071v0.24h0.718v0.24h0.479v0.24h0.719v0.24A9.365,9.365,0,0,0,107.525,18.212ZM59.869,16.774l0.239,2.876a3.028,3.028,0,0,0,1.437-.719v-0.24h0.479l0.239-.479h0.479l0.239-.479H63.7l0.239-.479,2.634-.24c0.673,0.936,1.772.476,2.155,1.917,0.685,0.729-.3,2.562-0.479,3.355H67.293l-0.239-.719c-0.209-.279-1.33-0.781-1.676-1.2-2.738-.1-5.265-0.012-5.268,2.636-0.472.533,0,2.5,0,3.595q-0.12,4.193-.239,8.387h0.239l0.239,1.438a25.147,25.147,0,0,0,3.353.24h1.437V36.9h0.239v0.719a4.588,4.588,0,0,1-1.676.24V38.1l-2.634-.24a0.637,0.637,0,0,0-.718-0.24v0.24H58.672v-0.24H57.235a21.719,21.719,0,0,1-4.79.24V36.9a11.244,11.244,0,0,1,3.353-.24c0.339-3.494.239-7.865,0.239-11.742,0-2.2.132-4.716-.479-6.231a8.369,8.369,0,0,0-2.634-.24v-0.24H52.206v-1.2h1.2v-0.24l1.916,0.24Zm91,1.438-2.4.24q-0.12.359-.239,0.719H148l0.24,1.917h0.239v0.479h0.24q0.118,0.6.239,1.2h0.239v0.479h0.24v0.719h0.239v0.479h0.24q0.12,0.479.239,0.959h0.24V26.12h0.239V26.6h0.24v0.719h0.239V27.8h0.24c0.08,0.32.159,0.639,0.239,0.959h0.24q0.12,0.719.239,1.438h0.24v0.479h0.239v0.719c0.209,0.459.7,0.979,0.958,1.438a0.42,0.42,0,0,0,.24-0.24c1.157-.793,1.115-2.655,1.676-4.074h0.239V27.8h0.24V27.078h0.239V26.359h0.24V25.641h0.239V24.682h0.24V24.2H157.1l0.24-1.677h0.239V22.046h0.24q0.119-1.8.239-3.594c-0.516-.077-0.471-0.237-0.479-0.24h-2.634v-0.24H154.7V17.014l2.156-.24v0.24h4.071v-0.24h2.4q0.118,0.6.239,1.2a11.9,11.9,0,0,0-1.916.479l-2.155,3.834V23h-0.239v0.479h-0.24V24.2h-0.239l-0.24,1.2h-0.239l-0.24.959h-0.239v0.719h-0.24v0.479h-0.239L157.1,29h-0.239v0.479h-0.24v0.719h-0.239l-0.24.959H155.9v0.719h-0.24q-0.119.479-.239,0.959h-0.24v0.719h-0.239l-0.24.959h-0.239v0.719h-0.239v0.479h-0.24v0.719h-0.239l-0.24.959h-0.239V38.1h-0.24v0.479h-0.239l-0.24.959h-0.239v0.719h-0.24q-0.239.719-.479,1.438H151.35v0.479h-0.24c-0.08.319-.159,0.639-0.239,0.959h-0.24v0.719l-0.479.24v0.719l-0.479.24V45.77l-0.479.24q-0.358,1.078-.718,2.157l-0.479.24v0.479h-0.239l-0.24,1.2-0.718.479-0.24.479h-1.916v0.24h-0.957v0.24l-2.635.24-0.479-.719c1.45-.539,3.674-1.3,4.071-2.876h0.479c0.155-.656.314-0.546,0.479-1.2h0.479a2.992,2.992,0,0,1,.719-1.438h0.239V45.051l0.719-.479V44.092l0.718-.479,0.24-.959,0.478-.24V41.936l0.479-.24,0.24-.959h0.239V40.258l0.479-.24V39.3h0.24a2.256,2.256,0,0,0,.239-1.2h-0.239l-0.24-1.438h-0.239V36.184h-0.24V35.465h-0.239l-0.24-.959h-0.239V33.788h-0.24q-0.118-.479-0.239-0.958h-0.239V32.111h-0.24q-0.12-.479-0.239-0.958H148V30.433h-0.239V29.954h-0.24V29.235h-0.239V28.756h-0.24c-0.08-.32-0.159-0.639-0.239-0.959h-0.24q-0.12-.719-0.239-1.438l-0.479-.24V25.4H145.6V24.922h-0.239V24.2h-0.24q-0.118-.479-0.239-0.959h-0.24V22.525h-0.239V22.046h-0.24V21.327h-0.239c-0.46-.937-0.6-2.092-1.437-2.636a2.534,2.534,0,0,0-1.916-.479V17.254c2.344-.449,6.057,0,8.382-0.479l1.676,0.24v0.24h0.24v0.959Zm-114.71,6.23c3.72-.036,6.819-1.3,10.3-1.438V22.046H46.219a7.193,7.193,0,0,0-1.437-2.4l-0.718-.24-0.958-1.2a2.261,2.261,0,0,1-.958-0.479,12.5,12.5,0,0,0-3.353.479l-0.718.959H37.837V19.65l-0.479.24v0.719l-0.479.24v0.479A5.717,5.717,0,0,0,36.161,24.442ZM106.328,23v-1.2h-0.239c-0.313-1.466-1.282-1.775-2.156-2.636l-0.718-.959a2.266,2.266,0,0,1-.958-0.479H99.862a2.311,2.311,0,0,1-.958.479l-0.718.959h-0.24V19.65l-0.718.479v0.719h-0.24v0.479H96.749v0.479h-0.24v0.719H96.27c-0.237.658,0.067,1.219-.239,1.677H96.27v0.24h1.2Zm19.4,1.2c3.485,0.671,7.043-1.059,10.537-1.2l-0.24-1.438h-0.239V21.088h-0.24l-1.676-2.157a8.766,8.766,0,0,1-1.916-1.2h-2.4C127.648,18.438,125.94,21.766,125.726,24.2Zm-102.5,0H22.75l-0.239-.959H22.032V22.765a2.4,2.4,0,0,1-.479-0.479H21.074l-0.24-.479H20.356l-0.479-.719-1.2-.24v-0.24H18.2v-0.24c-1.55-.665-4.055-0.468-6.226-0.479-0.424,1.157-.239,3.247-0.239,4.793v9.825l0.718,1.917L13.89,36.9v0.24l3.592,0.24v-0.24l2.874-.479v-0.24h0.479l0.479-.719h0.479l0.718-.959H22.75V34.267l0.718-.479V33.069l0.479-.24,0.239-2.4h0.239a9.735,9.735,0,0,0-.479-4.553H23.708V25.161H23.469A1.854,1.854,0,0,1,23.229,24.2ZM44.782,45.29l-2.395-.24a3.045,3.045,0,0,0-.239,1.2,2.109,2.109,0,0,1,.479.479h0.479v0.24h0.958v0.24a2.23,2.23,0,0,1,1.2,1.917H45.022l-0.239,1.2-0.718.24V50.8H43.585v0.24c-0.967.35-2.209-.342-2.874-0.479a2.54,2.54,0,0,1-.239-0.958,2.536,2.536,0,0,1,.958-0.24c0.418,0.491.97,0.494,1.916,0.479a2.164,2.164,0,0,0,.479-1.2,2.058,2.058,0,0,1-.479-0.479c-0.982-.621-2.048-0.344-2.395-1.677H40.711v-1.2a1.329,1.329,0,0,0,.479-0.959l0.718-.24v-0.24h0.718v-0.24l2.395,0.719ZM5.508,43.853h1.2c0.491,1.324.252,3.781,0.239,5.512a2.094,2.094,0,0,0,1.676.479c0.273-.273,0-0.1.479-0.24a37.028,37.028,0,0,0,.239-5.751h1.437v5.032H10.537l-0.24,1.2a4.267,4.267,0,0,1-2.874.959V50.8l-1.2-.24-0.239-.719H5.747V49.364H5.508V43.853Zm6.705,0H13.65c0.305,1.44,1.463,1.831,1.676,3.355h0.479l0.24,0.959h0.239V43.853h1.2c0.623,1.685.252,4.829,0.239,6.949a2.458,2.458,0,0,0-1.2.24V50.8c-0.816-.5-0.489-0.7-0.958-1.438l-0.479-.24-0.239-.959-0.479-.24V47.447H14.129l-0.24-.719H13.65c0.029,1.067.307,3.47-.239,4.074v0.24H12.453C11.808,49.3,12.2,46.039,12.213,43.853Zm6.945,0h1.2c0.623,1.685.252,4.829,0.239,6.949a3.753,3.753,0,0,1-1.437.24V43.853Zm2.395,0H22.99c0.31,1.825,1.22,3.073,1.437,5.032h0.479l1.437-5.032h1.2L26.1,48.885H25.864V49.6h-0.24c-0.285.685,0.057,0.717-.479,1.2v0.24h-1.2V50.8H23.708a4.807,4.807,0,0,0-.719-2.157V47.926H22.75V47.447H22.511V46.489H22.271Zm7.184,0h4.311v0.959a9.336,9.336,0,0,1-2.874.24v1.677h2.395v1.2H30.174v1.917h2.874v1.2H28.977C28.332,49.3,28.725,46.039,28.737,43.853Zm10.777,7.189h-1.2L36.88,48.166H35.922V50.8a3.037,3.037,0,0,1-1.2.24c-0.623-1.685-.252-4.829-0.239-6.949a11.24,11.24,0,0,1,3.353-.24c0.273,0.273,0,.1.479,0.24,0.629,1.078.949,0.757,0.958,2.636a4.566,4.566,0,0,0-.479.719,4.78,4.78,0,0,0-.718.479A7.231,7.231,0,0,1,39.514,51.042Zm6.945-7.189h1.2c0.623,1.685.252,4.829,0.239,6.949a3.037,3.037,0,0,1-1.2.24C46.054,49.3,46.446,46.039,46.459,43.853Zm2.634,0c1.593-.024,3.833-0.208,5.029.24a2.54,2.54,0,0,0-.239.959H52.206V50.8a3.037,3.037,0,0,1-1.2.24c-0.535-1.444-.252-4.13-0.239-5.991H49.093v-1.2Zm5.747,0h1.437c0.107,1.193.711,1.575,0.958,2.636h0.479a12.58,12.58,0,0,1,1.2-2.636h1.2L59.39,46.009l-0.479.24-0.239.959H58.433v0.479H58.193V50.8l-1.2.24V50.8c-0.634-.74.208-2.343-0.239-3.355l-0.479-.24L55.8,45.77l-0.479-.24V45.051H55.08Zm14.608,0.959h0.479c0.189,0.914.928,2.427,0.479,3.834h-0.24l-0.239,1.2c-0.71.422-1.683,1.606-3.113,1.2V50.8l-1.437-.24a5.323,5.323,0,0,0-.958-1.438l-0.239-2.4L64.9,44.571a2.421,2.421,0,0,0,.958-0.479v-0.24a5.249,5.249,0,0,1,3.353.479C69.482,44.6,69.3,44.333,69.449,44.811Zm2.395-.959h4.071v1.2H73.041v1.677h2.634v1.2H73.041v3.115h-1.2V43.853Zm10.3,0c1.753-.072,3.241-0.187,3.592,1.2H85.494a0.723,0.723,0,0,1-.718.479c-0.4-.6-1.144-0.514-2.155-0.479l-0.479.719H81.9v0.479h-0.24l0.24,2.876a2.554,2.554,0,0,1,.479.479h0.479v0.24c1.436,0.518,1.832-1,2.634-.479a0.723,0.723,0,0,1,.479.719,2.792,2.792,0,0,1-.958.479c-0.453.478-.125,0.006-0.718,0.24-1.181.465-1.792,0-2.874-.24-0.5-.892-1.768-2.518-1.2-4.313h0.239l0.24-1.2Zm6.705,0h1.676a8.768,8.768,0,0,0,.958,2.636v0.959H91.72l0.24,0.959H92.2v0.959h0.239L92.917,50.8H92.678v0.24H91.72c-0.752-1.886-.954-1.778-3.592-1.677L87.888,50.8H87.649v0.24H86.691a5.189,5.189,0,0,1,.479-2.4h0.24l0.239-1.678,0.479-.24V45.77h0.239A5.876,5.876,0,0,0,88.846,43.853Zm6.226,0v5.991h2.874V50.8a14.048,14.048,0,0,1-4.071.24c-0.623-1.685-.252-4.829-0.24-6.949A3.755,3.755,0,0,1,95.073,43.853Zm5.268,0V50.8l-1.2.24V50.8c-0.527-.589-0.26-5.428-0.239-6.71A3.755,3.755,0,0,1,100.341,43.853Zm1.437,0h4.071l0.24,0.959h-0.24c-0.436.4-1.811,0.263-2.634,0.24v1.677h2.395a2.546,2.546,0,0,1,.239.959,8.368,8.368,0,0,1-2.634.24V50.8a3.039,3.039,0,0,1-1.2.24C101.373,49.3,101.765,46.039,101.778,43.853Zm10.058,0.479q0.12,0.359.239,0.719h0.24V45.53h0.239c0.627,1.431-.018,3.433-0.479,4.553a14.149,14.149,0,0,1-1.436.959,2.833,2.833,0,0,1-3.593-1.677c-1.034-.991-0.243-3.4,0-4.553a15.831,15.831,0,0,1,1.437-.959C109.66,43.432,111.142,44.176,111.836,44.332Zm6.7,6.71h-1.2l-1.437-2.876h-0.958V50.8a3.033,3.033,0,0,1-1.2.24c-0.623-1.685-.252-4.829-0.24-6.949a11.243,11.243,0,0,1,3.353-.24c0.273,0.273,0,.1.479,0.24,0.411,0.71.839,0.822,0.958,1.917h-0.24q-0.118.719-.239,1.438a5.909,5.909,0,0,0-.719.479A7.22,7.22,0,0,1,118.541,51.042Zm2.4-7.189a4.59,4.59,0,0,0,.958,1.678v0.479l0.479,0.24q0.12,0.479.239,0.959h0.24a2.013,2.013,0,0,1,.479.959h0.239V43.853h1.2v7.189l-1.437-.24c-0.282-1.4-1.576-2.636-2.155-3.834h-0.24V50.8l-1.437.24V44.092A3.756,3.756,0,0,1,120.936,43.853Zm5.269,0h1.2v7.189h-1.2V43.853Zm4.55,0h1.676c0.2,2.557,1.848,4.614,2.155,7.189h-1.2q-0.24-.839-0.479-1.677h-2.874c-0.365,1.038-.241,1.628-1.676,1.677Zm-94.833,1.2v1.917h1.437a2.1,2.1,0,0,0,.479-1.677,0.419,0.419,0,0,1-.239-0.24H35.922Zm30.414,0-0.24.719H65.856l-0.24,2.636c1.044,0.958.1,1.452,2.395,1.438,0.273-.273,0-0.1.479-0.24,0.405-1.757.757-2.478,0-4.313A6.438,6.438,0,0,0,66.335,45.051Zm44.543,0.24a11.01,11.01,0,0,0-2.155-.24l-0.24.719c-0.566.552-.5,1.733-0.479,2.876,0.719,0.473.226,0.677,1.2,0.959v0.24h1.2a2.8,2.8,0,0,0,.479-0.959,3.6,3.6,0,0,0,.479-2.636h-0.239Zm4.071-.24v1.917h1.437a2.093,2.093,0,0,0,.479-1.677,0.416,0.416,0,0,1-.239-0.24h-1.677Zm-25.624.479C89.28,46.7,88.92,47,88.846,48.166h1.676c-0.117-1.187-.631-1.342-0.718-2.636H89.325Zm41.19,2.636h1.916v-0.24a9.5,9.5,0,0,1-.958-2.4h-0.239Q130.874,46.848,130.515,48.166Z"/>
</svg>
