<svg xmlns="http://www.w3.org/2000/svg" width="1000" height="194" viewBox="0 0 1000 194">
  <defs>
    <style>
      .cls-1 {
        fill: #fff;
        fill-rule: evenodd;
      }
    </style>
  </defs>
  <g id="Artboard_1" data-name="Artboard 1">
    <path id="Big_Berkeley_Library_1" data-name="Big Berkeley Library 1" class="cls-1" d="M72.767,166.189l4.214,1.26v0.42l3.792,1.261v0.42l1.686,0.42,0.421,0.84,2.528,0.84,0.421,0.84h0.843l0.421,0.84h0.843l0.843,1.26h0.843l2.95,3.361,1.686,1.26v0.84l1.264,0.84,0.421,1.681,0.843,0.42v1.26h0.421v0.84h0.421v1.26H98.05v1.261h0.421v1.68h0.421v2.1h0.421l-0.421,10.922H98.471V204H98.05l-0.421,2.521H97.207l-0.843,2.52H95.943l-0.421,1.68-0.843.421v0.84l-1.264.84v0.84l-0.843.42-2.107,2.52H89.622l-1.264,1.681H87.515l-0.421.84-2.528.84-0.421.84-11.377,3.781-8.428.84v0.42H50.012v-0.42H46.22V225H42.427v-0.42H38.214v-0.42l-18.962.42c-0.795.068-.843,0.42-0.843,0.42-1.912.529-5.092-.051-5.9-0.84H12.088v-2.521l0.843-.42c2.373-2.258,9.882.613,12.22-1.68,0.937-1.076.421-4.864,0.421-6.721V125.022c-0.848-.964-0.321-2.483-0.843-3.78H24.308l-0.421-1.681H23.465v-0.84a22.22,22.22,0,0,0-2.528-1.68H15.459l-6.321-.84a8.034,8.034,0,0,1-.421-2.941c6.065-1.114,14.274-.42,21.069-0.42h7.585v-0.42l15.17-.42c9.374,0,16.562-.081,23.176,2.52l2.528,0.42v0.421l1.686,0.42v0.42l2.528,0.84v0.42l1.264,0.42,0.421,0.84h0.843l2.528,2.941,2.107,1.68A23.43,23.43,0,0,1,93.836,137.2v5.041l-2.528,7.561-0.843.42-0.421,1.681-1.264.84v0.84l-3.371,2.94-1.686,2.1H82.88l-0.843,1.26H81.194l-0.421.84-1.264.42v0.42H78.666l-0.421.84-1.264.42v0.421H76.138v0.42H75.3l-0.421.84H74.031v0.42C72.864,165.661,73.28,164.535,72.767,166.189Zm314.35,57.55c-5.039.912-11.954,0.42-17.7,0.42-5.878,0-12.95.511-18.119-.42v-2.521l1.685-.42v-0.42h3.371c3-.006,5.629-0.042,7.585-0.84,0.856-2.346.421-6.608,0.421-9.662V122.922h-0.421v-1.26H363.52v-0.42a4.508,4.508,0,0,1-.843-0.841h-0.843v-0.42l-8.849-.42a5.583,5.583,0,0,0-1.264-1.68q0.21-.84.421-1.68l14.749-1.681,9.27-2.52,0.421,0.84c0.926,0.95.818,5.2,0.422,7.561-0.976,5.816-.422,13.632-0.422,20.164q-0.21,25.621-.421,51.248v1.681H375.74v20.583h0.421v2.941h0.421q0.212,1.05.422,2.1a3.96,3.96,0,0,1,.843.84h0.842v0.42c2.63,0.99,6.116-1.039,8.007.84,0.428,0.324.414,0.516,0.842,0.84ZM243.426,112.42c0.268,4.857,0,12.714,0,18.9,0,3.24.317,7.536-.421,10.082q-0.422,27.512-.843,55.029a5.374,5.374,0,0,0,2.107.42c0.743-.834.821-0.355,1.685-0.84v-0.42H246.8q0.211-.42.421-0.84h0.843l0.422-.84h0.842l0.843-1.261h0.843l0.843-1.26H252.7l0.422-.84,1.264-.42,1.264-1.68h0.843l1.685-2.1h0.843l2.107-2.52h0.843l2.107-2.52,1.264-.421,3.371-3.78c3.647-3.636,7.624-5.608,7.585-13.022a4.447,4.447,0,0,1-.843-0.84h-0.843v-0.421h-7.585a0.96,0.96,0,0,0-.842-0.42,6.56,6.56,0,0,1-.422-2.52h0.422v-0.42l2.949-.42v0.42h5.057v0.42h2.528c2.54-.678,6.506-0.153,9.692-0.42,0.891-.075,1.7-0.848,2.95-0.42v0.42l1.264,0.42-1.686,3.361-1.264.84v0.84l-1.264.84v0.84l-2.95,2.521v0.84l-2.107,1.68-3.371,3.781h-0.842l-2.95,3.36h-0.843l-0.843,1.26-1.264.84v0.421h-0.843l-0.842,1.26H269.13l-0.421.84h-0.843l-1.264,1.68-1.264.42-1.686,2.1-1.685,1.26c-0.229.8,0.259,0.578,0.421,0.84a6.966,6.966,0,0,0,1.686,2.94l0.842,0.421v0.84l2.107,1.68v0.84l2.107,1.68v0.841l2.107,1.68v0.84l1.264,0.84v0.42l0.843,0.42V204l2.528,2.1v0.84l1.686,1.26v0.84l1.685,1.26v0.841l1.686,1.26v0.84l2.528,2.1v0.84l0.843,0.42,1.264,1.681h0.843l1.264,1.68,1.686,0.42v0.42l5.478,0.42v0.42l2.106,0.42a5.323,5.323,0,0,1,.422,2.1,0.736,0.736,0,0,0-.422.42,72.633,72.633,0,0,1-7.584.42l-3.371-.42V225c-2.643.712-7.539-.22-9.692-0.42l-2.107-2.521h-0.422v-0.84l-1.264-.84v-0.84l-1.264-.84v-0.84l-1.685-1.261v-0.84l-2.107-1.68v-0.84l-2.529-2.1q-0.21-.63-0.421-1.261l-1.264-.84V208.2l-1.686-1.26V206.1l-1.685-1.261q-0.212-.63-0.421-1.26l-0.843-.42v-0.84l-1.264-.84v-0.84l-1.265-.84v-0.84q-0.841-.632-1.685-1.261c-0.93-1.277-.475-1.839-2.528-2.1-1.2,1.4-3.051,1.9-4.636,2.94q-0.21.42-.421,0.841l-1.685.42-0.422.84h-0.843v0.42l-1.264.84v0.84h-0.421c-0.053,5.829-.032,12.143.843,16.8l2.107,0.42v0.42c3.165,1.007,8.457-1.24,10.534.84h0.421v1.26c0.129,0.581.343-.168,0.422,0.421h-0.422q-0.21.63-.421,1.26H219.407c-0.582-1.1-.745-0.711-0.842-2.521,1.1-.58.713-0.743,2.528-0.84v-0.42h7.585a0.944,0.944,0,0,1,.842-0.42c0.675-1.8.443-5.091,0.422-7.561,0.893-1.021.421-4.521,0.421-6.3v-57.97c0.061-5,1.372-13.188,0-18.063v-5.881c-0.317-1.047-1.006-2.17-1.264-3.361a1.613,1.613,0,0,1-1.264-.84h-5.057l-4.635-.84a5.319,5.319,0,0,1-.421-2.1c0.48-.479.168,0,0.421-0.84,1.6-.6,4.488-0.441,6.742-0.42,1.223-1.039,4.872-.289,6.742-0.841v-0.42l4.214-.42A23.9,23.9,0,0,1,243.426,112.42Zm421.8,3.781,10.114-.84V114.94h2.106v-0.42h2.107V114.1h1.686v-0.42h2.107v-0.42l6.321-.84a8.047,8.047,0,0,1,.421,2.941h-0.421v2.52c-0.956,3.236-.843,7.529-0.843,11.762q-0.212,13.022-.422,26.044c0,3.9-.165,8.52.422,11.762a6.622,6.622,0,0,0,2.528.42c0.662-.756.82-0.368,1.686-0.84v-0.42h0.842v-0.42h0.843l0.843-.84h0.843l0.421-.84h0.843l0.843-.84h0.842v-0.42H700.2v-0.421h0.843v-0.42l2.528-.84v-0.42h1.264v-0.42h0.843v-0.42l3.792-.84v-0.42H712v-0.42h2.528v0.42H717.9v0.42h1.686v0.42h1.264v0.42h1.264v0.42l2.528,0.84v0.42l1.686,0.42,0.842,1.261h0.843l1.686,2.1,3.792,3.361v0.84l0.843,0.42v0.84l0.843,0.42q0.21,0.84.421,1.68l0.843,0.42q0.21,1.05.421,2.1h0.422q0.21,0.84.421,1.68h0.421q0.633,2.73,1.264,5.461h0.422v1.68h0.421v2.521h0.422v4.2a8.048,8.048,0,0,1,.421,3.781h-0.421v3.781q-1.054,3.78-2.107,7.561h-0.422q-0.421,1.26-.842,2.52h-0.422q-0.21.84-.421,1.68l-0.843.421v0.84l-0.843.42v0.84l-1.264.84v0.84l-2.528,2.1-2.107,2.52h-0.843l-0.843,1.26-1.685.42q-0.212.42-.421,0.84h-0.843v0.42h-0.843V222.9h-1.264v0.42h-0.843v0.42h-1.264v0.42h-1.264v0.42H717.48V225h-2.107v0.42c-1.448.44-10.731,0.969-12.642,0.42v-0.42H700.2V225h-1.685v-0.42h-1.686v-0.42h-1.686v-0.42h-1.264v-0.42h-1.264c-2.95-1.163-5.264-2.845-9.27-2.941l-2.529,3.361c-1.281,2.778.52,5.424-3.792,5.461-1.057-2.848-.443-8.159-0.421-11.762,0.893-1.022.421-4.52,0.421-6.3V148.546c0-8.731.536-19.056-.843-26.464l-1.264-.84v-0.421h-0.843V120.4h-3.792v-0.42c-1.665-.471-3.974.537-5.057-0.42h-0.421v-2.52C665.287,116.562,664.975,117.039,665.228,116.2ZM627.3,211.557q0.212,0.84.421,1.68H627.3q-0.21,1.05-.421,2.1h-0.422v0.84l-0.842.42q-0.633,1.891-1.265,3.781h-0.421v0.84h-0.421v1.26H623.09c-0.5,1.2.1,1.262-.842,2.1V225H603.285c-0.821-.712-3.141-0.42-4.635-0.42h-11.8c-15.555,0-33,.28-47.195,0-0.692-1.3-.8-0.754-0.843-2.941,1.238-.717,1.206-1.214,3.371-1.26,2.8-2.3,9.786,2.492,10.113-3.36,0.985-1.117.422-5.219,0.422-7.142V190.553q0.21-19.742.421-39.486c0-5.48.873-13.9-.421-18.484v-7.141H552.3V122.5h-0.421v-1.681h-0.421v-0.84h-0.422v-0.84l-1.264-.84v-0.42h-8.849v-0.42l-2.107-.42a5.325,5.325,0,0,1-.421-2.1c0.48-.478.168,0,0.421-0.84,0.848-.154.843-0.42,0.843-0.42h2.107v-0.42c1.483-.419,2.776.333,3.792,0.42H575.9l7.584-.42v0.42h4.214a8.023,8.023,0,0,1,.422,2.941l-1.264.42c-1.208,1.1-4.4.839-6.743,0.84a52.264,52.264,0,0,0-10.534,1.26,8.061,8.061,0,0,1-1.264,1.26v64.691c-0.879.965-.422,7.246-0.422,9.242l0.843,18.483h0.422v1.68c0.633,1.843,1.351,3.7,2.949,4.621,1.583,1.6,12.115.84,15.591,0.84,8.586,0,17.527-.333,24.019-2.52l3.371-.42,8.006-3.361v-0.42h0.843v-0.42A11.142,11.142,0,0,1,627.3,211.557ZM42.006,118.3c-0.807,4.516-.421,10.756-0.421,15.963v28.985l1.264,0.42c0.965,0.849,4.192.42,5.9,0.42l14.327,0.42v0.42c1.471,0.41,3.164-.013,4.214.42v-0.42a22.583,22.583,0,0,0,10.535-13.022l0.421-6.3h0.421q-0.211-3.361-.421-6.722H77.823V137.2H77.4l-0.421-2.94H76.559v-0.84H76.138v-1.261H75.716l-0.421-1.68H74.874l-0.421-1.68-0.843-.42v-0.84l-0.843-.42v-0.841l-1.264-.84V124.6l-1.686-1.26-1.686-2.1H67.289l-0.421-.841H66.025c-3.764-2.477-5.812-3.777-12.22-3.78H46.641v0.42H44.534v0.42H43.27v0.42Zm609.317,11.762a16.989,16.989,0,0,1,3.792.42,4.895,4.895,0,0,1,.843,1.68h0.421c0.6,1.012-.612,5.023-0.842,5.461h-0.422v0.84h-0.421v0.841h-0.422c-0.7.848-.8,1.371-2.106,1.68-1.375,1.48-5.389.484-5.9-1.68h-0.421v-2.941h0.421V135.1h0.422q0.21-.84.421-1.68l2.107-1.681,0.421-.84C650.351,130.419,650.582,130.879,651.323,130.063ZM130.917,157.788h8.007v0.42l3.371,0.42v0.42l2.528,0.42v0.42l2.107,0.42v0.42l1.685,0.42v0.42l1.686,0.42v0.42l1.264,0.42q0.21,0.422.421,0.841h0.843l0.422,0.84h0.842l0.843,1.26h0.843l2.107,2.52,2.107,1.681v0.84l1.685,1.26v0.84c1.146,1.687,2.684,2.745,2.95,5.461l-1.264.42v0.42l-2.95.42v0.42h-2.107v0.42h-1.685v0.42h-2.107v0.421h-2.107c-4.3,1.338-9.878,1.655-14.327,2.94H134.71v0.42h-3.371v0.42h-3.793v0.42h-4.635v0.42h-4.635v0.42h-0.843l-0.421,1.261c-0.771.859-.494,3.879-0.422,5.461q0.633,3.78,1.265,7.561h0.421v1.26H118.7v0.84h0.422q0.21,1.05.421,2.1l0.843,0.421q0.21,0.84.421,1.68l0.843,0.42v0.84l1.685,1.26,2.529,2.941H126.7q0.21,0.42.421,0.84h0.843l0.421,0.84,1.686,0.42v0.42l2.528,0.84v0.42h1.264v0.42h1.264v0.421h1.686v0.42H138.5v0.42h2.528v0.42c2.109,0.59,8.186.012,9.692-.42h2.95l10.113-3.361a4.895,4.895,0,0,1,.843,1.68h-0.422c-1.148,1.91-3.613,2.554-5.478,3.781-6.17,4.06-18.3,9.338-29.075,5.881l-3.371-.42c-9.169-3.275-15.879-9.139-19.383-18.063v-1.68h-0.422v-1.261h-0.421v-2.1h-0.422V199.8h-0.421c-0.573-2.019,0-10.717.421-12.182v-2.521c2.913-9.68,5.651-16.186,13.063-21.423l0.843-1.261h0.843l0.421-.84,6.742-2.94C128.668,158.194,130.1,158.51,130.917,157.788Zm187.093,0h8.007v0.42l3.371,0.42v0.42l2.528,0.42v0.42l2.107,0.42v0.42l1.685,0.42v0.42h0.843l0.422,0.84,1.685,0.42v0.421l1.264,0.42,0.422,0.84h0.842l1.265,1.68h0.842l2.529,2.941,0.842,0.42v0.84l1.686,1.26v0.84l1.264,0.84a13.548,13.548,0,0,1,2.107,5.041l-1.264.42c-0.957.85-2.009,0.379-3.371,0.84v0.42H345.4v0.42h-1.685v0.42h-2.107v0.421H339.5c-5.325,1.656-12.151,1.77-17.7,3.36h-3.371v0.42h-3.793v0.42H310v0.42h-4.635v0.42h-0.843l-0.421,1.261c-0.761.849-.431,3.494-0.421,5.04A24.271,24.271,0,0,0,306.633,204q0.212,0.84.422,1.681l0.842,0.42v0.84l0.843,0.42v0.84l1.686,1.26,2.528,2.941H313.8l0.842,1.26,1.686,0.42v0.42h0.843v0.42l2.528,0.84v0.42l3.792,0.841v0.42l4.636,0.42c1.489,0.42,7.61,1.021,9.691.42v-0.42h2.529v-0.42h2.107v-0.42h1.685c2.23-.8,4.013-2.212,6.742-2.521a5.321,5.321,0,0,1,.422,2.1l-1.686.841-0.421.84H348.35q-0.212.42-.421,0.84h-0.843l-0.422.84-1.685.42-0.422.84-1.685.42v0.42l-2.528.841v0.42H339.08v0.42h-0.843v0.42h-1.264v0.42h-1.265V225h-1.264v0.42H333.18v0.42l-3.792.42v0.42H325.6c-5.76,0-9.529-.526-13.484-2.1l-5.056-1.68-0.422-.841-1.685-.42-0.843-1.26h-0.843l-1.685-2.1c-4.088-3.041-6.655-8.153-8.428-13.443v-2.1h-0.421v-2.1h-0.422v-4.621h-0.421q0.21-4.41.421-8.821h0.422v-2.521l2.949-9.241H296.1V174.59l0.842-.42,0.843-2.52,0.843-.42v-0.84l6.321-6.721h0.842l0.843-1.261h0.843l0.421-.84,6.742-2.94C315.761,158.194,317.193,158.51,318.01,157.788Zm78.8,28.564c-0.316,1.589-1.475,3.646-.843,5.881h0.421v4.2h0.422v2.1h0.421v1.681h0.421v1.26h0.422v1.26h0.421v0.84h0.422q0.421,1.26.842,2.521l0.843,0.42v0.84l1.264,0.84v0.84l0.843,0.42,1.686,2.1h0.842l1.264,1.68,1.686,0.42,0.421,0.84h0.843v0.42l1.686,0.42v0.42H412.4v0.42h0.843v0.42l2.949,0.421v0.42h1.686c1.786,0.56,9.472,1.625,12.22.84v-0.42l5.056-.42v-0.42h1.265V216.6h1.264v-0.42h1.264v-0.42h1.264c1.17-.512,1.05-1.032,2.95-1.26a4.894,4.894,0,0,1,.842,1.68h-0.421c-1.089,1.857-2.877,2.2-4.635,3.361l-0.422.84-1.685.42v0.42H436v0.42l-1.685.42c-4.556,2.417-9.415,4.615-16.434,4.621h-5.9v-0.42l-4.635-.42v-0.42h-1.264V225h-1.264v-0.42h-1.264v-0.42h-1.264v-0.42h-0.843v-0.42l-2.528-.841-0.422-.84h-0.843a32.441,32.441,0,0,1-4.635-4.2l-1.685-1.261v-0.84l-1.264-.84v-0.84l-0.843-.42q-0.211-.84-0.422-1.68h-0.421l-0.843-2.521h-0.421l-0.843-3.78h-0.421v-1.681h-0.422V201.9H385.01q-0.21-6.51-.421-13.022,1.263-5.46,2.528-10.922h0.421q0.211-.84.422-1.68h0.421v-0.84H388.8V174.59h0.422v-0.84l0.843-.84v-0.84l0.842-.42v-0.84l0.843-.42v-0.84l1.686-1.261v-0.84l2.528-2.1,0.421-.84h0.843q0.631-.84,1.264-1.681h0.843l0.421-.84H400.6l0.422-.84,3.792-1.26v-0.42h0.843v-0.42l2.949-.42c9.977-3.3,20.526,2.707,26.126,6.721l3.371,3.781a32.478,32.478,0,0,1,4.214,4.62v0.84l0.843,0.421a6.259,6.259,0,0,1,.842,3.36l-1.264.42c-0.944.891-5.231,1.607-6.742,2.1h-1.685v0.421h-2.107c-5.357,1.667-12.135,1.766-17.7,3.36h-3.371v0.42h-4.214v0.42h-4.635v0.42h-4.636v0.42h-0.842Zm272.212,37.387c-0.895.161-2.64,0.646-3.371,0.84-1.323.351-2-.34-2.95-0.42H639.524l-5.056.42v-0.42h-2.107c-0.693-1.3-.8-0.755-0.843-2.941,2.567-1.33,7.916-.871,11.8-0.84,1.723-3.356.842-10.754,0.842-15.543V169.13q-0.842-2.521-1.685-5.041c-1.342-1.905-7.468-1.238-10.113-1.681a6.56,6.56,0,0,1-.422-2.52h0.422v-0.42h2.107v-0.42h15.591v-0.42h2.528v-0.42c1.277-.367,2.345.023,3.371-0.42v0.42c0.911,0.6.847,0.993,0.843,2.52h0.421v2.941c-0.9,3.285-.421,8.6-0.421,12.6q-0.212,18.272-.422,36.546H656.8v3.36h0.421q0.212,1.26.422,2.521a8.934,8.934,0,0,1,1.264,1.26h6.742v0.42h2.528A5.406,5.406,0,0,1,669.021,223.739Zm-477-55.87a9.638,9.638,0,0,0,4.213-1.68l0.843-1.26h0.843l0.421-.84h0.843l0.421-.84,1.265-.421v-0.42h0.842v-0.42l2.529-.84v-0.42l2.528-.42v-0.42h1.685v-0.42h2.529v0.42h1.685v0.42h0.843v0.42h1.264v0.42h0.843l0.421,0.84h0.843l3.371,3.781c0.139,3.468-.733,4.6-1.685,6.721v1.26h-0.422c-0.265.519-.4,1.866-0.843,2.1h-1.685a21,21,0,0,0-6.742-5.881h-1.686c-5.617-1.778-12.315.924-14.327,4.2-1.213,1.976-.842,5.717-0.842,8.822v18.9c0,4.679-1.106,15.969,1.685,17.643,1.719,1.638,8.7.488,11.377,1.26h2.95v0.42h0.421v2.521c-2.75,1.015-7.877.442-11.377,0.42-1.389-1.222-6.169-.226-8.427-0.42-0.791-.068-0.843-0.42-0.843-0.42-1.669-.46-3.49.322-4.635,0.42l-13.906.42a8.026,8.026,0,0,1-.421-2.941,0.735,0.735,0,0,0,.421-0.42l9.692-.42c1.767-3.442.843-11.074,0.843-15.963V167.449h-0.422v-2.1a9.254,9.254,0,0,1-2.107-1.68l-8.849-.42a9.491,9.491,0,0,1,0-3.781l5.057-.42c1.561,0.428,10.54,1.013,12.641.42a20.95,20.95,0,0,1,5.057-.84C192.329,160.833,192.051,164.462,192.018,167.869Zm660.725,50.409v1.26l-4.214,3.781-0.421.84h-0.843l-0.843,1.26h-0.843v0.42a4.963,4.963,0,0,0-1.264.84,12.057,12.057,0,0,1-5.9-1.68l-1.264-1.68h-0.843L834.2,220.8l-0.843-.42v-0.84l-1.264-.84v-0.84l-1.264-.84c-0.992-1.387-.258-1.774-2.528-2.1-0.744,1.138-1.832,1.314-2.95,2.1l-0.843,1.26h-0.842l-0.843,1.26h-0.843l-0.421.84h-0.843l-0.421.84-1.686.42-0.421.84h-0.843V222.9l-1.686.42v0.42H814.4v0.42h-0.842v0.42l-2.529.42v0.42h-1.685c-1.209.388-4.368,1.392-6.321,0.84v-0.42l-3.792-.42V225l-2.529-.84-2.528-3.361v-1.26H793.75q-0.211-3.15-.422-6.3h0.422V210.3h0.421v-1.68h0.421v-1.26h0.422v-0.84h0.421v-1.26l0.843-.421q0.21-.84.421-1.68l1.264-.84v-0.84l1.686-1.26,2.528-2.941h0.843l0.421-.84,1.265-.42v-0.42l2.528-.84v-0.42h0.843v-0.42l2.528-.84v-0.421h1.264v-0.42h0.843v-0.42l2.528-.42v-0.42H816.5v-0.42h1.264v-0.42h1.264v-0.42H820.3v-0.42h1.264v-0.42l2.949-.42v-0.42l2.95-.42q0.211-.42.421-0.841l0.843-.42v-14.7l-1.264-3.781h-0.421l-1.686-2.1c-0.706-.485-0.957,0-1.685-0.84-2.983-.181-7.176-0.858-10.113,0h-2.529c-1.625.537-3.268,1.695-5.056,2.1,0.147,5.02-1.79,12.1-5.478,13.022v0.42h-2.95c-1-1.71-1.3-1.577-1.264-4.62H796.7q0.212-1.26.422-2.521h0.421q0.21-.84.421-1.68h0.422v-0.84l0.843-.42v-0.84l1.264-.841v-0.84l2.949-2.52,0.422-.84h0.843l0.842-1.26h0.843l0.421-.841h0.843v-0.42l2.528-.84v-0.42l3.793-.84v-0.42l5.478-.42v-0.42a9.328,9.328,0,0,1,4.214.42h3.792v0.42h1.686v0.42l3.792,0.84L838,164.509v0.84l0.842,0.42q0.211,0.84.422,1.68h0.421v0.84H840.1c1,2.526.421,6.882,0.421,10.082v22.264c0,3.091-.546,7.231.421,9.661h0.422q0.422,1.26.842,2.521l0.843,0.42A19.641,19.641,0,0,0,852.743,218.278ZM467.179,164.089q-0.21.84-.421,1.68h-0.421c-0.416,1.206.233,3.2,0.421,3.781l0.843,4.2h0.421q0.212,0.84.421,1.681h0.422v1.26h0.421v0.84h0.422q0.21,0.84.421,1.68h0.421v1.26h0.422v0.841h0.421q0.212,0.84.422,1.68h0.421v1.26h0.421q0.212,0.84.422,1.68H473.5v1.261h0.421q0.212,0.84.422,1.68h0.421v1.26h0.422q0.21,0.84.421,1.68h0.421v1.261h0.422v0.84h0.421q0.212,1.05.421,2.1h0.422v1.26h0.421v0.84h0.422v1.261h0.421v0.84H479.4v1.26h0.422v0.84h0.421v1.26h0.422q0.42,1.26.842,2.521h0.422v0.84h0.421a3.575,3.575,0,0,1,.843,1.68h1.264V208.2h0.421v-0.42H485.3v-0.84h0.421V206.1h0.421v-0.84h0.422V204h0.421v-1.26h0.422V201.9h0.421v-1.26h0.421q0.212-1.26.422-2.521h0.421v-1.26h0.422v-1.26h0.421v-1.26h0.421v-1.26h0.422v-1.261H491.2q0.212-1.26.421-2.52h0.422q0.21-1.26.421-2.521h0.422q0.42-1.89.842-3.78h0.422v-1.26h0.421v-1.261h0.421v-1.26h0.422v-1.26h0.421v-1.26h0.422q0.422-2.1.842-4.2h0.422v-1.68h0.421v-6.3a4.033,4.033,0,0,1-.843-0.84h-0.842v-0.42c-2.577-.97-6.853,1.034-8.849-0.841h-0.422v-2.1c0.48-.479.168,0,0.422-0.84h1.685v-0.42l11.377,0.42h5.9v-0.42h7.585a8.038,8.038,0,0,1,.421,2.94,24.483,24.483,0,0,1-5.478,1.681l-1.264,2.1h-0.421v0.84l-0.843.84v0.84h-0.422v0.841l-0.842.42q-0.211,1.05-.422,2.1h-0.421v0.84h-0.422v0.84h-0.421l-0.843,2.521h-0.421v1.26h-0.421q-0.212.84-.422,1.68H500.89v1.26h-0.422q-0.21.84-.421,1.681h-0.421v1.26H499.2v0.84h-0.421v1.26h-0.421q-0.212.84-.422,1.68h-0.421v1.261H497.1v0.84h-0.421q-0.21,1.05-.421,2.1h-0.422v1.26h-0.421v0.841H494.99v1.26h-0.421v0.84h-0.421v1.26c-6.8,15.012-12.591,31.191-20.227,45.368v0.84H473.5v0.84h-0.421v0.84h-0.422v0.84h-0.421V246h-0.421l-0.843,2.521H470.55l-0.842,2.52h-0.422q-0.21.84-.421,1.68h-0.422q-0.21.841-.421,1.681H467.6v0.84h-0.422v0.84h-0.421v0.84h-0.421v0.84h-0.422v0.84h-0.421v0.841h-0.422v0.84h-0.421v0.84H464.23v0.84h-0.422v0.84h-0.421q-0.212.42-.421,0.84h-0.843l-0.422.84h-1.685c-1.115,1.026-2.891.332-4.635,0.841-2.22.647-8.992,3.207-11.378,0.84h-0.421v-1.26l4.635-1.681v-0.42h0.843v-0.42H449.9l0.421-.84,1.686-.42,1.264-1.68h0.843q0.632-.84,1.264-1.681H455.8v-0.84l1.686-1.26v-0.84l1.264-.84v-0.84l1.685-1.261v-0.84l0.843-.42v-0.84l1.264-.84,0.422-1.26,0.842-.42v-0.841l0.843-.42v-0.84l1.264-.84v-0.84l0.843-.42,0.421-1.26H467.6v-0.84l0.842-.421V239.7l0.843-.42v-0.84l0.843-.42v-0.84l0.843-.42q0.21-.84.421-1.68l0.843-.421q0.21-.84.421-1.68l0.843-.42v-0.84l0.843-.84v-0.84h0.421V229.2c0.43-.821,1.8-2.47,1.264-4.2h-0.421v-1.26h-0.421V222.9h-0.422q-0.21-1.262-.421-2.521h-0.422q-0.21-1.05-.421-2.1h-0.421q-0.212-.84-0.422-1.681h-0.421v-1.26h-0.421V214.5h-0.422q-0.21-1.05-.421-2.1H470.55v-1.26h-0.421l-0.421-1.681h-0.422V208.2h-0.421q-0.212-.84-0.422-1.68h-0.421q-0.21-1.05-.421-2.1h-0.422v-1.26h-0.421q-0.21-.84-0.421-1.68h-0.422v-1.26h-0.421q-0.212-.84-0.422-1.681h-0.421v-1.26H464.23q-0.212-.84-0.422-1.68h-0.421v-1.26h-0.421q-0.212-.84-0.422-1.681h-0.421v-1.26H461.7q-0.21-.84-0.421-1.68h-0.421v-1.26h-0.422v-0.84h-0.421v-1.261h-0.422q-0.21-.84-0.421-1.68h-0.421v-1.26H458.33q-0.21-.84-0.421-1.68h-0.421v-1.261h-0.422q-0.21-.84-0.421-1.68h-0.422v-1.26H455.8q-0.21-.84-0.421-1.68h-0.422V174.59h-0.421q-0.212-.84-0.421-1.68H453.7v-1.26h-0.421q-0.212-.84-0.422-1.68h-0.421v-0.84H452.01v-0.841h-0.422v-0.84l-0.843-.84v-0.84l-0.842-.42-0.422-1.26h-0.842c-1.024-1.045-3.374-.887-5.478-0.84a5.209,5.209,0,0,1,0-2.941l1.264-.42c0.7-.615,7.236-0.689,8.849-0.42,3.088,0.514,5.962,0,9.692,0h5.9v-0.42l5.478,0.42a5.412,5.412,0,0,1,.843,3.36h-0.422v0.421A33.249,33.249,0,0,0,467.179,164.089Zm296.653,3.78a6.413,6.413,0,0,0,3.792-1.26l0.843-1.26h0.843q0.21-.42.421-0.84h0.843l0.421-.84h0.843q0.21-.42.421-0.841l1.686-.42,0.421-.84h1.264v-0.42h0.843v-0.42h1.264v-0.42a14.481,14.481,0,0,1,7.164,0v0.42h1.264l4.635,3.361v0.84h0.421a5.134,5.134,0,0,0,.843,1.26c0.086,3.217-1.163,5.055-2.107,7.141q-0.21,1.05-.421,2.1h-0.422a1.428,1.428,0,0,1-1.264.84c-0.648-1.038-1.185-.637-1.685-1.26V174.17l-0.843-.42-0.843-1.26h-0.843l-0.842-1.26-1.686-.42v-0.42h-0.843v-0.42h-2.106c-2.749-.811-8.558.014-10.535,1.26l-0.421.84H766.36l-0.843.84v0.84l-0.843.42c-0.942,1.532-.286,3.051-0.842,5.041H763.41v21.424c0,5.266-.985,17.048,2.107,18.9v0.42h1.264v0.42h4.635l8.428,0.42a14.488,14.488,0,0,1,.421,2.941c-2.434.9-6.955,0.441-10.113,0.42-1.621-1.425-6.03.238-8.427-.42v-0.42H754.14v0.42l-13.063.42a8.026,8.026,0,0,1-.421-2.941h0.421V220.8c2.839-.125,6.292-0.41,9.692-0.42,1.767-3.442.843-11.074,0.843-15.963V167.449c-0.956-1.06-.186-1.953-1.686-2.94-1.885-1.8-7.54.244-9.27-1.26h-0.422v-3.361c2.857-1.054,8.184-.442,11.8-0.42a5.919,5.919,0,0,0,3.792.42,30.549,30.549,0,0,1,7.585-.84c0.563,1.5.442,4.164,0.422,6.3H763.41Q763.622,166.609,763.832,167.869Zm114.615,0h1.686c0.868-1.362,2.435-1.62,3.792-2.52l0.422-.84h0.842l0.422-.84h0.842l0.422-.841,1.685-.42,0.422-.84,2.107-.42v-0.42h0.842v-0.42h1.686v-0.42a15.2,15.2,0,0,1,5.9.42v0.42h0.843v0.42l2.528,0.84,0.843,1.261h0.843l0.843,0.84v0.84l0.842,0.42q0.211,1.47.422,2.94h-0.422q-0.21,1.47-.421,2.941h-0.421v1.26h-0.422v0.84h-0.421c-0.5.943-.844,2.027-1.264,2.941-0.847-.241-0.365.05-0.843-0.42-1.49-.42-3.508-2.729-4.635-3.781l-0.422-.84-4.635-1.68c-1.431-.423-3.842.19-4.635,0.42h-2.528v0.42h-1.686l-3.792,2.52c-2.363,3.231-2.107,8.648-2.107,14.283,0,10.433-.854,22.857.843,31.925l1.264,0.42v0.42H881.4v0.42h4.214l8.427,0.42c0.583,1.1.746,0.711,0.843,2.521-0.48.478-.168,0-0.421,0.84l-25.705-.84v0.42l-13.062.42a8.023,8.023,0,0,1-.422-2.941h0.422V220.8c2.738-.244,6.352-0.415,9.691-0.42,1.768-3.442.843-11.074,0.843-15.963V167.869h-0.421v-2.1c-0.013-.039-0.263.078-0.422-0.84l-1.264-.42v-0.42h-0.843v-0.42c-2.74-1-7.548,1.58-8.427-1.261h-0.422c-0.382-.723.728-2.877,0.843-2.94h11.378a5.917,5.917,0,0,0,3.792.42,30.549,30.549,0,0,1,7.585-.84,18.019,18.019,0,0,1,.421,5.461C877.594,165.4,878.227,166.835,878.447,167.869Zm50.566,95.356-1.264.42v0.42h-1.264v0.42l-4.636.421c-1.73.525-7.263,2.8-9.691,2.1v-0.42l-2.529-.42-0.421-1.26a55.555,55.555,0,0,0,10.535-5.461v-0.42l1.685-1.261v-0.84l1.686-1.26v-0.84l1.685-1.26v-0.841l1.264-.84v-0.84l1.264-.84v-0.84l1.265-.84v-0.84l0.842-.42v-0.841l1.264-.84v-0.84l0.843-.42,0.422-1.26h0.421v-0.84l1.264-.84v-0.841l0.843-.42v-0.84l0.843-.42q0.21-.84.421-1.68l0.843-.42,0.421-1.26h0.422q0.21-.84.421-1.681l0.843-.42v-0.84l0.842-.84v-0.84h0.422v-0.84h0.421V229.2c0.511-.976,1.906-2.6,1.264-4.621h-0.421v-1.26h-0.421v-0.841H940.39v-1.26h-0.421v-0.84h-0.422q-0.21-1.05-.421-2.1h-0.421v-1.26h-0.422v-0.841h-0.421v-1.26h-0.421v-0.84h-0.422v-1.26H936.6q-0.211-.84-0.422-1.68h-0.421v-1.261h-0.421q-0.212-.84-0.422-1.68h-0.421q-0.211-1.05-.422-2.1h-0.421v-1.261h-0.421q-0.212-.84-0.422-1.68h-0.421V201.9h-0.421q-0.211-.84-0.422-1.68H931.12v-1.26H930.7q-0.21-.842-0.421-1.681h-0.421v-1.26h-0.422v-0.84h-0.421v-1.26h-0.421q-0.212-.84-0.422-1.681h-0.421v-1.26h-0.422q-0.21-.84-0.421-1.68h-0.421v-1.26h-0.422l-0.421-1.681H925.22v-1.26H924.8q-0.21-.84-0.421-1.68h-0.422v-1.26h-0.421l-0.421-1.681h-0.422v-1.26h-0.421q-0.211-.84-0.422-1.68h-0.421v-1.26h-0.421v-0.84h-0.422V174.17h-0.421q-0.211-.84-0.421-1.68h-0.422v-1.26H918.9v-0.84h-0.422v-0.84h-0.421v-0.841h-0.421v-0.84h-0.422c-0.9-1.659-.886-3.233-2.949-3.78-2.436-1.967-5.408,1.961-5.478-3.361l0.842-.42c0.741-.734,4.874-1.368,6.742-0.84,6.832,1.929,16.724-.929,24.019.42a8.017,8.017,0,0,1,.422,2.94l-1.265.421v0.42h-5.478a0.939,0.939,0,0,1-.842.42l-0.422,1.26c-1.172,1.222-.315,6.311.422,7.981h0.421v0.84h0.421v1.261h0.422q0.21,0.84.421,1.68h0.422v1.26h0.421q0.21,0.84.421,1.68H936.6v0.84h0.421v1.261h0.422q0.21,0.84.421,1.68h0.421v1.26h0.422v0.84h0.421l0.421,1.681h0.422v1.26h0.421v0.84h0.422v1.26h0.421q0.21,0.84.421,1.68h0.422v1.261H942.5v0.84h0.421q0.212,1.05.422,2.1h0.421v1.26h0.422v0.841H944.6v1.26h0.421v0.84h0.422v1.26h0.421v0.84h0.422v1.26h0.421v0.841l0.843,0.42c1.04,1.626.273,2.633,2.949,2.94l0.422-1.26h0.421V206.1h0.421q0.211-.84.422-1.681h0.421v-1.26h0.422q0.21-1.26.421-2.52h0.421q0.211-1.26.422-2.521h0.421v-1.26h0.422v-1.26h0.421v-1.26h0.421v-1.26H956.4v-1.261h0.421v-1.26h0.421q0.212-1.26.422-2.52h0.421v-0.84h0.422q0.632-2.732,1.264-5.461H960.2v-1.261h0.421v-1.26h0.422v-1.26h0.421v-1.26h0.422q0.21-1.26.421-2.521h0.421v-1.68h0.422v-1.26h0.421v-6.721l-0.843-.42c-1.291-1.269-7.493-.882-9.691-1.261a5.313,5.313,0,0,1-.422-2.1c0.48-.478.168,0,0.422-0.84,2.75-1.015,7.877-.442,11.377-0.42,0.574,0.507,3.4.768,4.635,0.42a27.468,27.468,0,0,1,10.535-.42,6.582,6.582,0,0,1,.421,2.52,5.243,5.243,0,0,0-.843.84h-0.843v0.421h-2.949l-0.422.84-1.685,1.26v0.84l-0.843.42q-0.21.84-.421,1.68h-0.422v0.841h-0.421v0.84H970.73v0.84h-0.422v0.84h-0.421l-0.843,2.52h-0.421v1.261H968.2v0.84H967.78v0.84h-0.421v0.84h-0.422v1.26h-0.421q-0.212.84-.422,1.68h-0.421v1.261h-0.421v0.84H964.83v1.26h-0.421q-0.212.84-.421,1.68h-0.422v1.261h-0.421v0.84h-0.422q-0.21,1.05-.421,2.1h-0.421v1.26h-0.422q-0.21.84-.421,1.681h-0.422v1.26H960.2v0.84h-0.421q-0.212,1.05-.422,2.1h-0.421v1.26H958.51v0.841h-0.422v1.26h-0.421q-0.212,1.05-.422,2.1h-0.421v0.84H956.4v1.26h-0.422q-0.21.841-.421,1.681h-0.421v1.26h-0.422v0.84H954.3v1.26h-0.422q-0.21,1.05-.421,2.1h-0.421v0.84H952.61v1.26h-0.421q-0.212.84-.422,1.68h-0.421v1.261h-0.421q-0.211.84-.422,1.68h-0.421v1.26h-0.421q-0.212.84-.422,1.68h-0.421V222.9H948.4q-0.21.84-.421,1.68h-0.421v1.26h-0.422v0.84h-0.421v0.84H946.29v0.84h-0.422v1.261h-0.421v0.84h-0.422l-0.842,2.52h-0.422v1.26H943.34l-0.843,2.521h-0.421v0.84h-0.422v0.84h-0.421v0.84h-0.421v0.84H940.39v0.841h-0.421v0.84h-0.422v1.26h-0.421l-0.843,2.52h-0.421v0.84h-0.421v0.841h-0.422v0.84H936.6v0.84h-0.422l-2.949,6.721h-0.422v0.84h-0.421v0.84h-0.421v0.84h-0.422v0.841H931.12v0.84H930.7q-0.21.84-.421,1.68h-0.421A3.552,3.552,0,0,0,929.013,263.225ZM131.339,161.148v0.42h-1.686v0.42l-2.528.84v0.421h-0.843l-0.843,1.26-2.107,1.68v0.84l-1.264.84-0.421,1.681a24.1,24.1,0,0,0-4.214,12.6,11.4,11.4,0,0,0,3.793.42c1.191-.986,3.7.09,5.478-0.42,4.855-1.4,10.866-1.54,15.591-2.941h2.528v-0.42c1.745-.517,3.513.185,4.635-0.84h0.421v-2.94c-0.838-.74-0.356-0.82-0.842-1.681h-0.422v-0.84h-0.421q-0.211-.63-0.421-1.26l-0.843-.42v-0.84l-3.371-2.941C140.265,163.746,138.046,161.128,131.339,161.148Zm187.093,0v0.42l-2.95.42v0.42h-0.843l-0.421.841h-0.843l-0.842,1.26-2.529,2.1v0.84l-0.843.42q-0.21.63-.421,1.261h-0.421q-0.212.84-.422,1.68a23.611,23.611,0,0,0-3.371,11.342,11.4,11.4,0,0,0,3.793.42c1.191-.986,3.7.09,5.478-0.42,4.87-1.4,10.83-1.53,15.591-2.941h2.528v-0.42c1.745-.517,3.513.185,4.635-0.84h0.422v-2.52h-0.422q-0.21-1.05-.421-2.1l-0.843-.42v-0.84h-0.421v-0.84l-1.264-.84v-0.84l-2.529-2.1C327.714,164.1,325.256,161.133,318.432,161.148Zm78.377,21c4.051,0.787,11.43-.151,15.169-1.261l5.057-.42c3.783-1.132,8.634-1.735,12.641-2.52a11.7,11.7,0,0,0-2.106-6.3l-0.843-.42v-0.84l-1.686-1.26v-0.841l-2.528-2.1-0.421-.84h-0.843l-1.264-1.68-1.686-.42-0.421-.841h-0.843v-0.42h-1.264v-0.42l-5.057-.42v0.42h-1.685v0.42h-0.843v0.42l-1.686.42q-0.42.631-.842,1.261h-0.843l-1.264,1.68h-0.422v0.84l-1.264.84q-0.21.84-.421,1.681l-0.843.42-1.264,3.78h-0.421v0.84h-0.422v1.261A20.137,20.137,0,0,0,396.809,182.152Zm-352.7-14.283v0.42H42.849l-0.421.841H42.006v0.84H41.585v40.746h0.421v3.361h0.421v2.52h0.421l0.421,2.1,1.264,0.84v0.42l2.528,0.84v0.42h1.264v0.42l5.057,0.42v0.42c2.791,0.78,8.335-.264,10.113-0.84h1.685v-0.42h1.264V220.8h0.843v-0.42h1.264v-0.42H69.4v-0.42h0.843l0.421-.84H71.5l0.421-.84h0.843L73.61,216.6l2.95-2.52v-0.84l0.843-.42v-0.84l0.843-.42,0.843-2.521h0.421V208.2H79.93v-1.26h0.421v-1.26h0.421v-2.1h0.421v-2.52h0.421c0.687-2.423-.286-10.12-0.843-11.762H80.352v-1.68H79.93v-0.841H79.509v-1.26H79.088v-0.84H78.666v-0.84l-0.843-.42-0.421-1.68-0.843-.42v-0.841l-1.264-.84v-0.84l-0.843-.42-2.107-2.52H71.5l-1.264-1.681H69.4l-0.421-.84H68.132l-0.421-.84-1.686-.42v-0.42l-2.528-.84v-0.42H62.232v-0.42H60.968v-0.42H59.7v-0.42H58.018v-0.421H56.333v-0.42Zm663.254,0c-1.043.874-3.053-.043-4.636,0.42v0.42l-4.213.421v0.42h-1.686v0.42h-1.264v0.42H694.3v0.42H693.04v0.42l-1.686.42v0.42c-1.536.829-1.446,0.183-2.528,1.68H688.4v40.327h0.422v0.84h0.421l2.528,2.941,1.686,0.42,0.421,0.84h0.843v0.42h1.264v0.42h0.843v0.42l2.95,0.42a20.977,20.977,0,0,0,12.22.42h2.107V220.8l2.528-.42v-0.42l2.528-.84V218.7h0.843v-0.42l1.685-.42v-0.42l1.265-.42,0.421-.841h0.843l0.421-.84,1.686-1.26v-0.84l0.842-.42q0.211-.84.422-1.68h0.421q0.212-.84.422-1.681h0.421c1.567-3.581,3.21-14.286,1.685-19.323v-2.1C727.38,178.721,719.643,167.9,707.367,167.869ZM828.3,191.393c-2.621-.487-5.193.342-7.585,1.26h-1.264v0.421h-0.843v0.42h-1.264v0.42H816.5v0.42H815.24v0.42H814.4v0.42h-0.842l-0.422.84-1.685.42-0.422.84h-0.843l-0.842,1.26H808.5v0.421l-1.264.84v0.84l-1.264.84q-0.212,1.05-.422,2.1h-0.421v1.26h-0.421c-0.429,1.231-.876,7.436,0,8.4q0.21,0.63.421,1.26h0.421c0.751,1.078-.456.8,1.264,1.26,2.147,2.528,10.765,2.166,13.485.84l1.685-.42,0.422-.84h0.842l0.422-.84h0.842l1.686-2.1,0.843-.42v-0.84l0.842-.421q0.212-.84.422-1.68h0.421V204C828.725,199.848,828.973,194.873,828.3,191.393ZM95.1,242.642h12.641V246H98.892v5.881H106.9v3.361H98.892v5.881h9.692a16.6,16.6,0,0,0-.421,3.36H95.1V242.642Zm36.239,20.163a7.978,7.978,0,0,1,1.264-3.36c2.962,1.384,4.79,2.742,8.427,1.26a6.036,6.036,0,0,0,.843-2.941c-0.48-.478-0.168,0-0.421-0.84-1.043-.446-2.045-1.2-2.95-1.68h-0.843v-0.42h-0.842V254.4l-1.686-.42-2.528-2.941c-0.077-1.729-.549-3.579.421-4.621a4.248,4.248,0,0,1,2.95-2.94c2.186-2.3,7.911.012,9.692,0.84-0.242.844,0.05,0.364-.422,0.84a7.409,7.409,0,0,1-.842,2.1A14.19,14.19,0,0,0,137.659,246c-0.765,1.312-1.256,1.423-1.264,3.781l2.529,2.1,4.213,1.261,2.529,2.94c0.132,1.781.728,3.432-.422,4.621a4.247,4.247,0,0,1-2.949,2.94c-0.8.833-.244,0-1.265,0.42v0.42h-1.685v0.421C136.71,265.627,133.242,263.256,131.339,262.805Zm80.905-20.163h5.478a26.543,26.543,0,0,0,2.949,1.26l1.686,2.1h0.421v0.841H223.2v0.84h0.421v1.26h0.422c1.92,5.441-.72,13.691-4.636,14.7v0.42h-1.264c-3.193,1.321-4.2.382-7.585,0v-0.42l-1.264-.42-1.264-1.68h-0.421q-0.212-.84-0.422-1.68h-0.421v-0.84h-0.421v-1.261h-0.422v-2.52H205.5v-3.361h0.421v-2.52h0.422V248.1h0.421l0.421-1.681h0.422v-0.84l3.371-2.52h1.264v-0.42Zm16.855,0h12.642V246h-8.849v5.881H240.9v3.361h-8.006v9.241H229.1V242.642Zm43.824,19.323a3.585,3.585,0,0,0-1.686.84v0.42l-1.685.42v0.42c-2.246.97-7.292,1.131-8.849-.42-4.592-1.081-6.668-10.595-4.214-15.962l2.528-3.361h0.843V243.9a5.518,5.518,0,0,0,1.264-.84l6.742-.42a29.5,29.5,0,0,1,4.635,2.52,26.241,26.241,0,0,1-1.685,2.521l-1.686-.42-0.421-.841c-1.644-.838-4.7-0.294-6.321,0l-1.264,1.681H260.7c-0.489.7,0.008,0.963-.843,1.68q-0.212,2.52-.421,5.041c0.364,1.336.981,3.244,1.264,4.621,0.9,0.509.917,0.946,2.107,1.26a4.868,4.868,0,0,0,3.792.84v-0.42h1.264v-0.42h0.843v-0.42h0.843c0.171-.1,1.052-1.361,1.685-1.26v0.42A3.881,3.881,0,0,1,272.923,261.965Zm21.49,2.52h-3.792v-0.42H290.2c-0.172-2.029-1.024-2.667-1.264-4.62h-8.849q-0.843,2.52-1.685,5.04H275.03c0.2-2.622,1.672-5.181,2.528-7.141v-1.26h0.421v-1.26H278.4v-1.26h0.421V252.3h0.421v-0.84h0.422q0.21-1.26.421-2.52c0.749-1.869,1.817-3.514,2.107-5.881a14.226,14.226,0,0,0,4.635-.42v0.84h0.422q0.21,1.26.421,2.52h0.421v1.261h0.422v0.84h0.421v1.26h0.422v1.26h0.421l0.843,3.781h0.421v0.84h0.421v1.26h0.422l0.843,3.781h0.421v0.84h0.421A18.552,18.552,0,0,1,294.413,264.485Zm28.233-21.843h12.22a8.7,8.7,0,0,1,.421,3.36h-8.849v5.881h8.006v2.941c-1.912.709-5.416,0.441-8.006,0.42v9.241h-3.792V242.642Zm21.49,0c4.6-.153,9.255.38,10.113,3.78,3.2,2.689,2.08,12.063,0,15.123h-0.421l-1.264,1.68h-0.843v0.42c-0.861.487-.938,0.009-1.686,0.84l-4.635.421-3.792-1.261-2.107-2.52H339.08q-0.211-.84-0.422-1.68h-0.421c-1.5-3.44-.9-10.855.843-13.443l2.949-2.52,2.107-.42v-0.42Zm-321.514.42h3.792v11.762l0.421,5.041,1.264,0.84c0.8,0.822,2.126.86,3.792,0.84,0.947-1.05,1.616-.4,2.107-2.1,0.72-.809.421-3.14,0.421-4.621V243.062h4.214c0.143,6.815,1.4,19.242-3.793,20.583-1.1,1.172-6.216,1.723-7.585.42a4.818,4.818,0,0,1-3.792-3.36c-1.063-1.066-.842-3.328-0.843-5.461V243.062Zm21.069,0h3.792l0.421,1.26,0.843,0.42v0.84L49.591,246l0.421,1.681,0.843,0.42v0.84l0.843,0.42v0.84h0.421v0.84l0.843,0.42,0.421,1.681,0.843,0.42a8.412,8.412,0,0,1,1.264,2.94h0.421V243.062h4.214v21a11.344,11.344,0,0,1-3.792.42l-8.428-13.862H47.484v13.862H43.691V243.062Zm21.49,0h3.792v21.423H65.182V243.062Zm7.585,0h3.793a0.738,0.738,0,0,0,.421.42c0.173,2.4,1.36,4.434,2.107,6.3,1.266,3.167,1.694,6.558,2.95,9.662h0.421a10.222,10.222,0,0,1,1.264-4.2v-1.26h0.421v-1.261h0.421v-1.26h0.421V250.2h0.421v-1.26H85.83v-1.26a17.455,17.455,0,0,0,1.686-4.621h3.792l-7.163,21.423H79.93a0.738,0.738,0,0,0-.421-0.42c-0.153-2.018-1.081-3.527-1.685-5.04l-0.843-3.781H76.559V254.4H76.138L75.3,250.623C74.4,248.373,73.1,245.833,72.767,243.062Zm40.452,0h9.692v0.42l2.107,0.42c0.786,1.292,3.09,3.505,2.528,5.881h-0.421v2.1H126.7a4.251,4.251,0,0,1-2.95,2.941l5.056,9.661H124.6c-0.538-1.31-3.788-8-4.636-8.4h-2.949v8.4h-3.793V243.062Zm37.082,0h3.792v21.423H150.3V243.062Zm8.006,0h15.17q-0.211,1.68-.422,3.36h-5.478v18.063h-3.792V246.422h-5.478v-3.36Zm17.7,0h4.214c0.65,3.306,3.053,5.37,3.792,8.821a0.734,0.734,0,0,0,.422-0.42c0.99-.874,1.019-2.115,1.685-3.36h0.422v-0.84c0.718-1.344,1.713-2.43,2.107-4.2h4.213c-0.317,1.49-1.105,1.888-1.685,2.94q-0.212.84-.422,1.681h-0.421q-0.21.84-.421,1.68l-0.843.42v0.84l-0.843.84v0.84H187.8v0.841l-0.843.42v0.84H186.54v9.661a13.044,13.044,0,0,1-4.214.42v-9.661H181.9v-0.84h-0.421v-0.84h-0.421V252.3l-0.843-.84v-0.84l-0.843-.42v-0.84h-0.421v-0.84l-0.843-.84v-0.84l-0.843-.421v-0.84h-0.421Zm121.358,0h3.792v18.063h9.271a14.339,14.339,0,0,1-.422,3.36H297.363V243.062Zm16.434,0h4.213v21a13.035,13.035,0,0,1-4.213.42V243.062Zm45.509,0H369v0.42l2.106,0.42q1.055,1.47,2.107,2.941c0.141,4.1-.237,7.206-3.371,7.981,0.31,1.3,1.15,1.946,1.686,2.94l0.421,1.681h0.422q0.21,0.84.421,1.68l0.843,0.42v0.84h0.421q0.212,1.05.422,2.1h-3.793c-0.675-1.4-3.668-7.939-4.635-8.4H363.1v8.4h-3.792V243.062Zm22.333,0,0.421,1.26h0.422v0.84H382.9V246l0.843,0.42v0.841l0.843,0.42v0.84h0.421v0.84l0.843,0.42q0.21,0.84.421,1.68l0.843,0.42v0.84l0.843,0.421q0.21,0.84.421,1.68l0.843,0.42,0.421,1.26h0.422V243.062h3.792v21.423h-3.371a3.942,3.942,0,0,0-.843-0.84v-0.84l-0.843-.42q-0.21-.84-0.421-1.68l-0.843-.42v-0.84l-0.842-.42q-0.212-.63-0.422-1.261h-0.421q-0.212-.84-0.422-1.68l-0.842-.42v-0.84l-0.843-.42q-0.211-.84-0.421-1.681l-0.843-.42-0.422-1.26h-0.421v13.022a13.044,13.044,0,0,1-4.214.42v-21A13.044,13.044,0,0,1,381.639,243.062Zm16.855,0h3.793v21.423h-3.793V243.062Zm18.962,0,7.164,21.423h-3.793q-0.841-2.52-1.685-5.04h-8.849l-1.686,5.04h-3.371c0.116-1.579.817-2.252,1.264-3.36l0.843-3.781h0.422V256.5h0.421q0.21-1.26.421-2.52h0.422q0.21-1.26.421-2.521h0.422v-0.84h0.421v-1.26h0.421V248.1q1.054-2.52,2.107-5.041h4.635ZM213.087,246v0.42h-0.843l-0.843,1.261H210.98c-1.1,1.633-2.208,8.639-.422,10.5,0.283,1.227.575,0.991,1.264,1.681l0.843,1.26h1.264c1.809,0.659,2.408-.015,4.214-0.42a23.09,23.09,0,0,0,2.107-3.781c0.862-2.7-.488-7.084-0.843-8.821l-2.528-2.1h-3.792Zm131.892,0c-0.932,1.1-2.085,1.264-2.528,2.941-0.669.624-1.518,6.624-.843,8.4h0.421v0.84h0.422c0.744,1.392.366,2.083,2.106,2.521,0.734,0.757,1.852.838,3.372,0.84v-0.42h1.264l1.685-2.1c0.859-.826,2.027-6.09,1.264-8.4a27.08,27.08,0,0,1-1.264-2.94A9.258,9.258,0,0,1,348.771,246h-3.792Zm-227.967.42v6.3a12.594,12.594,0,0,0,5.478-.84,8.54,8.54,0,0,0,.842-4.2,2.83,2.83,0,0,1-1.264-1.261h-5.056Zm246.086,0v6.3a12.591,12.591,0,0,0,5.478-.84,8.539,8.539,0,0,0,.843-4.2,2.825,2.825,0,0,1-1.264-1.261H363.1ZM281.35,256.5h6.321a16.28,16.28,0,0,0-.843-3.36h-0.421V252.3h-0.421v-1.26h-0.422v-1.26h-0.421q-0.211-1.26-.422-2.52H284.3v0.42h-0.421Zm130.207,0h6.321l-2.95-9.241c-0.48.478-.168,0-0.421,0.84h-0.422Q412.822,252.3,411.557,256.5Z" transform="translate(0 -91)"/>
  </g>
</svg>
