<svg id="Layer_1" data-name="Layer 1" xmlns="http://www.w3.org/2000/svg" viewBox="0 0 1012.22 206.99">
    <path d="M579.24,135.45,650.38,117l71.74,18.41V0H579.24ZM658.6,48.51a29.91,29.91,0,0,1,5.9-10,28.9,28.9,0,0,1,9.66-7,31.82,31.82,0,0,1,13.17-2.61,36,36,0,0,1,10.09,1.24,29,29,0,0,1,7.65,3.52l.41.28-5.31,8.31-.42-.28a21.69,21.69,0,0,0-12.69-3.61,18.08,18.08,0,0,0-8.15,1.75,17.6,17.6,0,0,0-5.86,4.68,20.17,20.17,0,0,0-3.56,6.9A29,29,0,0,0,668.3,60a30.22,30.22,0,0,0,1.2,8.59,21.76,21.76,0,0,0,3.56,7.18,16.89,16.89,0,0,0,5.9,4.89,18.38,18.38,0,0,0,8.37,1.79,21.15,21.15,0,0,0,8-1.35,22.4,22.4,0,0,0,5.68-3.31l.45-.35,4.92,7.94-.3.28A19.52,19.52,0,0,1,703,87.93a22.73,22.73,0,0,1-4.37,2,42.79,42.79,0,0,1-5.33,1.46,31.17,31.17,0,0,1-6.18.59,31.71,31.71,0,0,1-13.21-2.61,27.92,27.92,0,0,1-9.57-7,30.18,30.18,0,0,1-5.82-10.11,36.55,36.55,0,0,1-2-11.91A35.42,35.42,0,0,1,658.6,48.51ZM594.67,30h11.17V66.58c0,5.5,1.11,9.58,3.3,12.14s5.8,3.83,10.78,3.83c4.68,0,8.13-1.36,10.27-4s3.27-6.4,3.27-10.94V30h10.45V66.76c0,7.95-2,14.21-6,18.61S627.8,92,619.65,92c-8.57,0-14.94-2.19-18.95-6.5s-6-10.34-6-17.94Z"
          style="fill:#fff"/>
    <polygon points="768.63 47.15 752.69 47.15 752.69 11.12 745.6 11.12 745.6 52.92 768.63 52.92 768.63 47.15"
             style="fill:#fff"/>
    <rect x="782.69" y="11.12" width="7.09" height="41.8" style="fill:#fff"/>
    <path d="M826.06,52.29a14.61,14.61,0,0,0,5.06-2,9.76,9.76,0,0,0,3.29-3.61,11.35,11.35,0,0,0,1.19-5.43,10.35,10.35,0,0,0-.72-4,9.55,9.55,0,0,0-2-3,9.86,9.86,0,0,0-3-2.07,13.58,13.58,0,0,0-3.57-1.1V31a10.42,10.42,0,0,0,5.46-3.17,9.12,9.12,0,0,0,2-6.24,10.11,10.11,0,0,0-1.1-4.9,8.75,8.75,0,0,0-3-3.23,13.51,13.51,0,0,0-4.52-1.76,27.19,27.19,0,0,0-5.46-.53H807.11v41.8h12.43A31.23,31.23,0,0,0,826.06,52.29Zm-12-35.58H819a10,10,0,0,1,5.78,1.38,5,5,0,0,1,1.94,4.39,5.62,5.62,0,0,1-1.85,4.68q-1.85,1.47-6,1.47h-4.83Zm0,30.63V34h5.58q4.71,0,6.72,1.78a6.51,6.51,0,0,1,2,5.12,5.54,5.54,0,0,1-2.26,5c-1.51,1-3.79,1.51-6.85,1.51Z"
          style="fill:#fff"/>
    <path d="M880.35,52.92l-9.16-13.31a46.45,46.45,0,0,0-2.82-3.89A9.72,9.72,0,0,0,866.55,34v-.13a15,15,0,0,0,4.08-1.07A11.41,11.41,0,0,0,874,30.61a9.83,9.83,0,0,0,2.29-3.33,11.54,11.54,0,0,0,.84-4.55q0-5.65-3.82-8.63t-10.86-3H849.66v41.8h7.09V34.78h.57a6.94,6.94,0,0,1,1.54.16,3.25,3.25,0,0,1,1.38.81,15.75,15.75,0,0,1,1.69,1.92c.65.84,1.48,2,2.48,3.39l8,11.86ZM862.22,29.51h-5.47V16.71h5.09c2.84,0,4.93.53,6.24,1.6a5.72,5.72,0,0,1,2,4.74,6.08,6.08,0,0,1-1.88,4.8C866.92,29,864.94,29.51,862.22,29.51Z"
          style="fill:#fff"/>
    <path d="M898.68,44h17.77l3.26,9h7.72l-16.26-41.8h-6.84l-15.94,41.8h7.09Zm6.47-17.7c.58-1.64,1.06-3.06,1.44-4.27s.67-2.2.88-2.95h.12c.26.71.56,1.65.91,2.82s.85,2.64,1.48,4.4l4.33,11.92H900.75Z"
          style="fill:#fff"/>
    <path d="M970.36,52.92,961.2,39.61q-1.77-2.62-2.83-3.89A9.72,9.72,0,0,0,956.55,34v-.13a15,15,0,0,0,4.08-1.07A11.16,11.16,0,0,0,964,30.61a9.69,9.69,0,0,0,2.29-3.33,11.36,11.36,0,0,0,.85-4.55q0-5.65-3.83-8.63t-10.86-3h-12.8v41.8h7.09V34.78h.57a6.91,6.91,0,0,1,1.53.16,3.25,3.25,0,0,1,1.38.81,15.69,15.69,0,0,1,1.7,1.92c.65.84,1.47,2,2.48,3.39l8,11.86ZM952.22,29.51h-5.46V16.71h5.08q4.27,0,6.25,1.6a5.72,5.72,0,0,1,2,4.74,6.06,6.06,0,0,1-1.89,4.8Q956.31,29.52,952.22,29.51Z"
          style="fill:#fff"/>
    <polygon
            points="1004.82 11.12 994.96 30.51 994.9 30.51 985.05 11.12 977.14 11.12 991.07 37.1 991.07 52.92 998.16 52.92 998.16 37.1 1011.72 11.12 1004.82 11.12"
            style="fill:#fff"/>
    <path d="M765.53,104.69a17.25,17.25,0,0,0-3.61-2.61q-2-1.1-4.08-2c-1.09-.5-2.1-1-3-1.41a11.72,11.72,0,0,1-2.39-1.48,7.18,7.18,0,0,1-1.6-1.78,4.43,4.43,0,0,1-.6-2.36A4.67,4.67,0,0,1,752,89.12a7.2,7.2,0,0,1,4.58-1.38,12.33,12.33,0,0,1,5.15,1,21,21,0,0,1,3.2,1.73l3.08-5a17,17,0,0,0-1.57-1A15.77,15.77,0,0,0,764,83.25a21.29,21.29,0,0,0-3.33-.91,22.81,22.81,0,0,0-4.36-.37,16.38,16.38,0,0,0-5,.75,12.12,12.12,0,0,0-4.11,2.2,10.64,10.64,0,0,0-2.79,3.51,10.39,10.39,0,0,0-1,4.71,12.18,12.18,0,0,0,.72,4.42,10.67,10.67,0,0,0,2,3.3,13.93,13.93,0,0,0,3,2.51,39.12,39.12,0,0,0,3.64,2c1.22.62,2.39,1.2,3.52,1.72a20.69,20.69,0,0,1,3,1.7,7.81,7.81,0,0,1,2.1,2.07,4.8,4.8,0,0,1,.79,2.79,5.28,5.28,0,0,1-2,4.11,8.08,8.08,0,0,1-5.49,1.73,14.12,14.12,0,0,1-3.52-.41,13.49,13.49,0,0,1-2.69-1A12.56,12.56,0,0,1,746.6,117c-.5-.38-.88-.67-1.13-.88l-3.2,5a14.61,14.61,0,0,0,1.73,1.29,17.25,17.25,0,0,0,2.63,1.38,19.47,19.47,0,0,0,3.58,1.09,20.91,20.91,0,0,0,4.49.44,19.67,19.67,0,0,0,5.93-.84,13.27,13.27,0,0,0,4.55-2.42,10.84,10.84,0,0,0,2.92-3.77,11.3,11.3,0,0,0,1-4.89,11.6,11.6,0,0,0-1-5A12,12,0,0,0,765.53,104.69Z"
          style="fill:#fff"/>
    <polygon
            points="790.16 105.44 804.16 105.44 804.16 99.79 790.16 99.79 790.16 88.62 806.04 88.62 806.04 82.72 783.13 82.72 783.13 124.52 806.48 124.52 806.48 118.62 790.16 118.62 790.16 105.44"
            style="fill:#fff"/>
    <path d="M832.78,82.72l-15.94,41.8h7.09l3.2-9h17.76l3.27,9h7.72l-16.26-41.8Zm-3.58,27.05,4.39-11.93c.59-1.63,1.07-3,1.45-4.26s.67-2.2.88-3H836c.25.71.56,1.65.91,2.82s.85,2.64,1.48,4.39l4.33,11.93Z"
          style="fill:#fff"/>
    <path d="M886.82,107.32a9.72,9.72,0,0,0-1.82-1.75v-.13a15,15,0,0,0,4.08-1.07,11.29,11.29,0,0,0,3.39-2.16,9.83,9.83,0,0,0,2.29-3.33,11.54,11.54,0,0,0,.85-4.55q0-5.65-3.83-8.63t-10.86-3h-12.8v41.8h7.09V106.38h.56a6.39,6.39,0,0,1,1.54.16,3.25,3.25,0,0,1,1.38.81,15.69,15.69,0,0,1,1.7,1.92c.64.84,1.47,2,2.48,3.39l8,11.86h8l-9.17-13.31A46.45,46.45,0,0,0,886.82,107.32Zm-6.15-6.21h-5.46V88.3h5.08q4.28,0,6.25,1.61a5.73,5.73,0,0,1,2,4.73,6.06,6.06,0,0,1-1.88,4.81C885.38,100.55,883.39,101.11,880.67,101.11Z"
          style="fill:#fff"/>
    <path d="M935.24,118.34a15,15,0,0,1-5.74,1,13.06,13.06,0,0,1-6-1.29,12,12,0,0,1-4.24-3.51,15.55,15.55,0,0,1-2.54-5.12,21.27,21.27,0,0,1-.85-6.08,20.24,20.24,0,0,1,.85-5.9,14.15,14.15,0,0,1,2.54-4.93,12.53,12.53,0,0,1,4.21-3.36,12.8,12.8,0,0,1,5.83-1.25,16.67,16.67,0,0,1,5.09.69,16.13,16.13,0,0,1,4,1.88l3.33-5.21a19.73,19.73,0,0,0-5.24-2.42A24.9,24.9,0,0,0,929.5,82a21.77,21.77,0,0,0-9,1.78,19.85,19.85,0,0,0-6.62,4.77,20.42,20.42,0,0,0-4.05,6.88,24.2,24.2,0,0,0-1.38,8.16,25,25,0,0,0,1.35,8.19,20.6,20.6,0,0,0,4,6.93,19.1,19.1,0,0,0,6.56,4.81,21.64,21.64,0,0,0,9.06,1.78,21.13,21.13,0,0,0,4.24-.4,29.08,29.08,0,0,0,3.67-1,15.88,15.88,0,0,0,3-1.38,13,13,0,0,0,2.11-1.54l-3.08-5A15.87,15.87,0,0,1,935.24,118.34Z"
          style="fill:#fff"/>
    <polygon
            points="983.35 99.73 962.45 99.73 962.45 82.72 955.36 82.72 955.36 124.52 962.45 124.52 962.45 105.57 983.35 105.57 983.35 124.52 990.44 124.52 990.44 82.72 983.35 82.72 983.35 99.73"
            style="fill:#fff"/>
</svg>